afaka.ufo
<glyph name="ampersand" format="1">
  <advance width="598"/>
  <unicode hex="0026"/>
  <note>
    uni0026
  </note>
  <outline>
    <contour>
      <point x="230" y="-12" type="qcurve"/>
      <point x="297" y="-12"/>
      <point x="400" y="45"/>
      <point x="440" y="90" type="qcurve"/>
      <point x="487" y="144"/>
      <point x="553" y="278"/>
      <point x="575" y="351" type="qcurve"/>
      <point x="509" y="351" type="line"/>
      <point x="491" y="284"/>
      <point x="432" y="169"/>
      <point x="391" y="124" type="qcurve"/>
      <point x="358" y="90"/>
      <point x="281" y="45"/>
      <point x="238" y="45" type="qcurve"/>
      <point x="200" y="45"/>
      <point x="139" y="77"/>
      <point x="102" y="134"/>
      <point x="102" y="173" type="qcurve"/>
      <point x="102" y="210"/>
      <point x="144" y="271"/>
      <point x="209" y="324"/>
      <point x="284" y="377"/>
      <point x="349" y="434"/>
      <point x="391" y="501"/>
      <point x="391" y="542" type="qcurve"/>
      <point x="391" y="598"/>
      <point x="326" y="669"/>
      <point x="267" y="669" type="qcurve"/>
      <point x="224" y="669"/>
      <point x="158" y="629"/>
      <point x="121" y="560"/>
      <point x="121" y="516" type="qcurve"/>
      <point x="121" y="463"/>
      <point x="167" y="346"/>
      <point x="247" y="228"/>
      <point x="346" y="122"/>
      <point x="398" y="80" type="qcurve"/>
      <point x="443" y="45"/>
      <point x="527" y="-1"/>
      <point x="564" y="-12" type="qcurve"/>
      <point x="584" y="47" type="line"/>
      <point x="553" y="57"/>
      <point x="479" y="98"/>
      <point x="440" y="128" type="qcurve"/>
      <point x="394" y="164"/>
      <point x="302" y="258"/>
      <point x="227" y="364"/>
      <point x="182" y="470"/>
      <point x="182" y="518" type="qcurve"/>
      <point x="182" y="560"/>
      <point x="228" y="617"/>
      <point x="267" y="617" type="qcurve"/>
      <point x="303" y="617"/>
      <point x="332" y="571"/>
      <point x="332" y="541" type="qcurve"/>
      <point x="332" y="505"/>
      <point x="289" y="448"/>
      <point x="221" y="398"/>
      <point x="145" y="348"/>
      <point x="77" y="290"/>
      <point x="33" y="217"/>
      <point x="33" y="169" type="qcurve"/>
      <point x="33" y="116"/>
      <point x="84" y="34"/>
      <point x="173" y="-12"/>
    </contour>
  </outline>
</glyph>
<glyph name="zero" format="1">
  <advance width="491"/>
  <unicode hex="0030"/>
  <note>
    uni0030
  </note>
  <outline>
    <contour>
      <point x="246" y="-12" type="qcurve"/>
      <point x="340" y="-12"/>
      <point x="446" y="161"/>
      <point x="446" y="321" type="qcurve"/>
      <point x="446" y="481"/>
      <point x="340" y="650"/>
      <point x="246" y="650" type="qcurve"/>
      <point x="151" y="650"/>
      <point x="45" y="482"/>
      <point x="45" y="321" type="qcurve"/>
      <point x="45" y="161"/>
      <point x="151" y="-12"/>
    </contour>
    <contour>
      <point x="246" y="45" type="qcurve"/>
      <point x="206" y="45"/>
      <point x="147" y="104"/>
      <point x="114" y="227"/>
      <point x="114" y="321" type="qcurve"/>
      <point x="114" y="416"/>
      <point x="147" y="537"/>
      <point x="206" y="593"/>
      <point x="246" y="593" type="qcurve"/>
      <point x="285" y="593"/>
      <point x="344" y="537"/>
      <point x="377" y="416"/>
      <point x="377" y="321" type="qcurve"/>
      <point x="377" y="227"/>
      <point x="344" y="104"/>
      <point x="285" y="45"/>
    </contour>
  </outline>
</glyph>
<glyph name="one" format="1">
  <advance width="491"/>
  <unicode hex="0031"/>
  <note>
    uni0031
  </note>
  <outline>
    <contour>
      <point x="80" y="59" type="line"/>
      <point x="80" y="0" type="line"/>
      <point x="432" y="0" type="line"/>
      <point x="432" y="59" type="line"/>
      <point x="298" y="59" type="line"/>
      <point x="298" y="638" type="line"/>
      <point x="244" y="638" type="line"/>
      <point x="218" y="623"/>
      <point x="155" y="601"/>
      <point x="112" y="594" type="qcurve"/>
      <point x="112" y="548" type="line"/>
      <point x="228" y="548" type="line"/>
      <point x="228" y="59" type="line"/>
    </contour>
  </outline>
</glyph>
<glyph name="two" format="1">
  <advance width="491"/>
  <unicode hex="0032"/>
  <note>
    uni0032
  </note>
  <outline>
    <contour>
      <point x="40" y="42" type="qcurve"/>
      <point x="40" y="0" type="line"/>
      <point x="446" y="0" type="line"/>
      <point x="446" y="61" type="line"/>
      <point x="251" y="61" type="line" smooth="yes"/>
      <point x="225" y="61"/>
      <point x="169" y="58"/>
      <point x="143" y="56" type="qcurve"/>
      <point x="223" y="140"/>
      <point x="345" y="280"/>
      <point x="414" y="404"/>
      <point x="414" y="465" type="qcurve"/>
      <point x="414" y="521"/>
      <point x="369" y="604"/>
      <point x="285" y="650"/>
      <point x="226" y="650" type="qcurve"/>
      <point x="166" y="650"/>
      <point x="76" y="597"/>
      <point x="37" y="554" type="qcurve"/>
      <point x="78" y="514" type="line"/>
      <point x="106" y="547"/>
      <point x="177" y="592"/>
      <point x="218" y="592" type="qcurve"/>
      <point x="283" y="592"/>
      <point x="345" y="519"/>
      <point x="345" y="462" type="qcurve"/>
      <point x="345" y="409"/>
      <point x="275" y="291"/>
      <point x="139" y="141"/>
    </contour>
  </outline>
</glyph>
<glyph name="three" format="1">
  <advance width="491"/>
  <unicode hex="0033"/>
  <note>
    uni0033
  </note>
  <outline>
    <contour>
      <point x="235" y="-12" type="qcurve"/>
      <point x="292" y="-12"/>
      <point x="385" y="32"/>
      <point x="440" y="113"/>
      <point x="440" y="170" type="qcurve"/>
      <point x="440" y="214"/>
      <point x="402" y="281"/>
      <point x="339" y="324"/>
      <point x="300" y="333" type="qcurve"/>
      <point x="300" y="337" type="line"/>
      <point x="352" y="356"/>
      <point x="417" y="432"/>
      <point x="417" y="491" type="qcurve"/>
      <point x="417" y="542"/>
      <point x="369" y="613"/>
      <point x="285" y="650"/>
      <point x="232" y="650" type="qcurve"/>
      <point x="176" y="650"/>
      <point x="88" y="605"/>
      <point x="52" y="571" type="qcurve"/>
      <point x="90" y="526" type="line"/>
      <point x="118" y="555"/>
      <point x="189" y="592"/>
      <point x="230" y="592" type="qcurve"/>
      <point x="283" y="592"/>
      <point x="346" y="535"/>
      <point x="346" y="486" type="qcurve"/>
      <point x="346" y="451"/>
      <point x="310" y="394"/>
      <point x="229" y="360"/>
      <point x="159" y="360" type="qcurve"/>
      <point x="159" y="305" type="line"/>
      <point x="236" y="305"/>
      <point x="328" y="271"/>
      <point x="369" y="211"/>
      <point x="369" y="172" type="qcurve"/>
      <point x="369" y="115"/>
      <point x="292" y="47"/>
      <point x="231" y="47" type="qcurve"/>
      <point x="172" y="47"/>
      <point x="93" y="94"/>
      <point x="64" y="124" type="qcurve"/>
      <point x="27" y="78" type="line"/>
      <point x="48" y="55"/>
      <point x="106" y="14"/>
      <point x="184" y="-12"/>
    </contour>
  </outline>
</glyph>
<glyph name="four" format="1">
  <advance width="491"/>
  <unicode hex="0034"/>
  <note>
    uni0034
  </note>
  <outline>
    <contour>
      <point x="306" y="439" type="qcurve"/>
      <point x="306" y="0" type="line"/>
      <point x="372" y="0" type="line"/>
      <point x="372" y="638" type="line"/>
      <point x="298" y="638" type="line"/>
      <point x="17" y="226" type="line"/>
      <point x="17" y="181" type="line"/>
      <point x="462" y="181" type="line"/>
      <point x="462" y="238" type="line"/>
      <point x="93" y="238" type="line"/>
      <point x="254" y="470" type="line"/>
      <point x="268" y="494"/>
      <point x="294" y="536"/>
      <point x="306" y="557" type="qcurve"/>
      <point x="310" y="557" type="line"/>
      <point x="309" y="533"/>
      <point x="306" y="463"/>
    </contour>
  </outline>
</glyph>
<glyph name="five" format="1">
  <advance width="491"/>
  <unicode hex="0035"/>
  <note>
    uni0035
  </note>
  <outline>
    <contour>
      <point x="232" y="-12" type="qcurve"/>
      <point x="286" y="-12"/>
      <point x="383" y="38"/>
      <point x="443" y="135"/>
      <point x="443" y="203" type="qcurve"/>
      <point x="443" y="273"/>
      <point x="390" y="361"/>
      <point x="301" y="404"/>
      <point x="246" y="404" type="qcurve"/>
      <point x="215" y="404"/>
      <point x="167" y="388"/>
      <point x="143" y="375" type="qcurve"/>
      <point x="161" y="578" type="line"/>
      <point x="411" y="578" type="line"/>
      <point x="411" y="638" type="line"/>
      <point x="99" y="638" type="line"/>
      <point x="78" y="334" type="line"/>
      <point x="117" y="309" type="line"/>
      <point x="146" y="328"/>
      <point x="196" y="349"/>
      <point x="230" y="349" type="qcurve"/>
      <point x="294" y="349"/>
      <point x="372" y="271"/>
      <point x="372" y="201" type="qcurve"/>
      <point x="372" y="154"/>
      <point x="332" y="85"/>
      <point x="266" y="47"/>
      <point x="226" y="47" type="qcurve"/>
      <point x="167" y="47"/>
      <point x="90" y="93"/>
      <point x="61" y="121" type="qcurve"/>
      <point x="25" y="75" type="line"/>
      <point x="47" y="53"/>
      <point x="104" y="13"/>
      <point x="181" y="-12"/>
    </contour>
  </outline>
</glyph>
<glyph name="six" format="1">
  <advance width="491"/>
  <unicode hex="0036"/>
  <note>
    uni0036
  </note>
  <outline>
    <contour>
      <point x="266" y="-12" type="qcurve"/>
      <point x="316" y="-12"/>
      <point x="399" y="40"/>
      <point x="450" y="131"/>
      <point x="450" y="191" type="qcurve"/>
      <point x="450" y="256"/>
      <point x="406" y="344"/>
      <point x="325" y="389"/>
      <point x="269" y="389" type="qcurve"/>
      <point x="227" y="389"/>
      <point x="144" y="341"/>
      <point x="112" y="299" type="qcurve"/>
      <point x="114" y="240" type="line"/>
      <point x="149" y="292"/>
      <point x="226" y="335"/>
      <point x="258" y="335" type="qcurve"/>
      <point x="301" y="335"/>
      <point x="356" y="299"/>
      <point x="383" y="234"/>
      <point x="383" y="191" type="qcurve"/>
      <point x="383" y="148"/>
      <point x="353" y="82"/>
      <point x="299" y="44"/>
      <point x="266" y="44" type="qcurve"/>
      <point x="217" y="44"/>
      <point x="150" y="103"/>
      <point x="116" y="215"/>
      <point x="116" y="293" type="qcurve"/>
      <point x="116" y="404"/>
      <point x="165" y="535"/>
      <point x="245" y="591"/>
      <point x="292" y="591" type="qcurve"/>
      <point x="322" y="591"/>
      <point x="378" y="564"/>
      <point x="398" y="540" type="qcurve"/>
      <point x="438" y="585" type="line"/>
      <point x="412" y="613"/>
      <point x="339" y="650"/>
      <point x="290" y="650" type="qcurve"/>
      <point x="243" y="650"/>
      <point x="156" y="611"/>
      <point x="89" y="527"/>
      <point x="49" y="391"/>
      <point x="49" y="293" type="qcurve"/>
      <point x="49" y="218"/>
      <point x="82" y="103"/>
      <point x="139" y="27"/>
      <point x="218" y="-12"/>
    </contour>
  </outline>
</glyph>
<glyph name="seven" format="1">
  <advance width="491"/>
  <unicode hex="0037"/>
  <note>
    uni0037
  </note>
  <outline>
    <contour>
      <point x="181" y="0" type="qcurve"/>
      <point x="254" y="0" type="line"/>
      <point x="258" y="94"/>
      <point x="278" y="248"/>
      <point x="319" y="387"/>
      <point x="392" y="522"/>
      <point x="449" y="595" type="qcurve"/>
      <point x="449" y="638" type="line"/>
      <point x="44" y="638" type="line"/>
      <point x="44" y="578" type="line"/>
      <point x="368" y="578" type="line"/>
      <point x="304" y="489"/>
      <point x="226" y="317"/>
      <point x="186" y="123"/>
    </contour>
  </outline>
</glyph>
<glyph name="eight" format="1">
  <advance width="491"/>
  <unicode hex="0038"/>
  <note>
    uni0038
  </note>
  <outline>
    <contour>
      <point x="248" y="-12" type="qcurve"/>
      <point x="309" y="-12"/>
      <point x="400" y="34"/>
      <point x="450" y="110"/>
      <point x="450" y="157" type="qcurve"/>
      <point x="450" y="200"/>
      <point x="418" y="261"/>
      <point x="367" y="304"/>
      <point x="339" y="321" type="qcurve"/>
      <point x="339" y="325" type="line"/>
      <point x="358" y="340"/>
      <point x="399" y="387"/>
      <point x="427" y="447"/>
      <point x="427" y="481" type="qcurve"/>
      <point x="427" y="555"/>
      <point x="333" y="650"/>
      <point x="250" y="650" type="qcurve"/>
      <point x="200" y="650"/>
      <point x="120" y="610"/>
      <point x="73" y="537"/>
      <point x="73" y="489" type="qcurve"/>
      <point x="73" y="439"/>
      <point x="128" y="367"/>
      <point x="163" y="342" type="qcurve"/>
      <point x="163" y="338" type="line"/>
      <point x="133" y="322"/>
      <point x="77" y="272"/>
      <point x="41" y="205"/>
      <point x="41" y="163" type="qcurve"/>
      <point x="41" y="113"/>
      <point x="95" y="33"/>
      <point x="188" y="-12"/>
    </contour>
    <contour>
      <point x="293" y="344" type="qcurve"/>
      <point x="254" y="359"/>
      <point x="183" y="396"/>
      <point x="139" y="449"/>
      <point x="139" y="489" type="qcurve"/>
      <point x="139" y="537"/>
      <point x="201" y="597"/>
      <point x="248" y="597" type="qcurve"/>
      <point x="286" y="597"/>
      <point x="338" y="565"/>
      <point x="366" y="511"/>
      <point x="366" y="478" type="qcurve"/>
      <point x="366" y="441"/>
      <point x="329" y="374"/>
    </contour>
    <contour>
      <point x="249" y="41" type="qcurve"/>
      <point x="208" y="41"/>
      <point x="142" y="75"/>
      <point x="105" y="133"/>
      <point x="105" y="169" type="qcurve"/>
      <point x="105" y="216"/>
      <point x="161" y="289"/>
      <point x="202" y="315" type="qcurve"/>
      <point x="249" y="297"/>
      <point x="332" y="258"/>
      <point x="382" y="203"/>
      <point x="382" y="159" type="qcurve"/>
      <point x="382" y="125"/>
      <point x="349" y="72"/>
      <point x="289" y="41"/>
    </contour>
  </outline>
</glyph>
<glyph name="nine" format="1">
  <advance width="491"/>
  <unicode hex="0039"/>
  <note>
    uni0039
  </note>
  <outline>
    <contour>
      <point x="201" y="-12" type="qcurve"/>
      <point x="248" y="-12"/>
      <point x="334" y="27"/>
      <point x="402" y="111"/>
      <point x="441" y="248"/>
      <point x="441" y="345" type="qcurve"/>
      <point x="441" y="420"/>
      <point x="409" y="535"/>
      <point x="352" y="612"/>
      <point x="272" y="650"/>
      <point x="225" y="650" type="qcurve"/>
      <point x="175" y="650"/>
      <point x="91" y="599"/>
      <point x="41" y="507"/>
      <point x="41" y="447" type="qcurve"/>
      <point x="41" y="382"/>
      <point x="84" y="294"/>
      <point x="166" y="250"/>
      <point x="221" y="250" type="qcurve"/>
      <point x="263" y="250"/>
      <point x="348" y="299"/>
      <point x="379" y="339" type="qcurve"/>
      <point x="376" y="398" type="line"/>
      <point x="342" y="347"/>
      <point x="264" y="304"/>
      <point x="232" y="304" type="qcurve"/>
      <point x="190" y="304"/>
      <point x="135" y="340"/>
      <point x="108" y="404"/>
      <point x="108" y="447" type="qcurve"/>
      <point x="108" y="491"/>
      <point x="139" y="557"/>
      <point x="191" y="594"/>
      <point x="224" y="594" type="qcurve"/>
      <point x="274" y="594"/>
      <point x="340" y="535"/>
      <point x="374" y="424"/>
      <point x="374" y="345" type="qcurve"/>
      <point x="374" y="234"/>
      <point x="326" y="104"/>
      <point x="246" y="47"/>
      <point x="199" y="47" type="qcurve"/>
      <point x="169" y="47"/>
      <point x="113" y="74"/>
      <point x="93" y="98" type="qcurve"/>
      <point x="53" y="54" type="line"/>
      <point x="78" y="26"/>
      <point x="152" y="-12"/>
    </contour>
  </outline>
</glyph>
<glyph name="A" format="1">
  <advance width="538"/>
  <unicode hex="0041"/>
  <note>
    uni0041
  </note>
  <outline>
    <contour>
      <point x="230" y="657" type="line"/>
      <point x="4" y="0" type="line"/>
      <point x="77" y="0" type="line"/>
      <point x="198" y="373" type="line" smooth="yes"/>
      <point x="217" y="430"/>
      <point x="250" y="539"/>
      <point x="266" y="597" type="qcurve"/>
      <point x="270" y="597" type="line"/>
      <point x="286" y="539"/>
      <point x="320" y="430"/>
      <point x="338" y="373" type="qcurve"/>
      <point x="458" y="0" type="line"/>
      <point x="534" y="0" type="line"/>
      <point x="308" y="657" type="line"/>
    </contour>
    <contour>
      <point x="118" y="266" type="line"/>
      <point x="118" y="208" type="line"/>
      <point x="418" y="208" type="line"/>
      <point x="418" y="266" type="line"/>
    </contour>
  </outline>
</glyph>
<glyph name="B" format="1">
  <advance width="585"/>
  <unicode hex="0042"/>
  <note>
    uni0042
  </note>
  <outline>
    <contour>
      <point x="92" y="657" type="line"/>
      <point x="92" y="0" type="line"/>
      <point x="296" y="0" type="line" smooth="yes"/>
      <point x="369" y="0"/>
      <point x="481" y="42"/>
      <point x="543" y="128"/>
      <point x="543" y="192" type="qcurve"/>
      <point x="543" y="260"/>
      <point x="467" y="339"/>
      <point x="407" y="350" type="qcurve"/>
      <point x="407" y="354" type="line"/>
      <point x="454" y="369"/>
      <point x="505" y="447"/>
      <point x="505" y="497" type="qcurve"/>
      <point x="505" y="553"/>
      <point x="449" y="624"/>
      <point x="348" y="657"/>
      <point x="282" y="657" type="qcurve"/>
    </contour>
    <contour>
      <point x="266" y="374" type="qcurve"/>
      <point x="164" y="374" type="line"/>
      <point x="164" y="600" type="line"/>
      <point x="270" y="600" type="line" smooth="yes"/>
      <point x="351" y="600"/>
      <point x="434" y="549"/>
      <point x="434" y="488" type="qcurve"/>
      <point x="434" y="436"/>
      <point x="355" y="374"/>
    </contour>
    <contour>
      <point x="284" y="57" type="qcurve"/>
      <point x="164" y="57" type="line"/>
      <point x="164" y="319" type="line"/>
      <point x="284" y="319" type="line" smooth="yes"/>
      <point x="375" y="319"/>
      <point x="473" y="258"/>
      <point x="473" y="194" type="qcurve"/>
      <point x="473" y="123"/>
      <point x="373" y="57"/>
    </contour>
  </outline>
</glyph>
<glyph name="C" format="1">
  <advance width="569"/>
  <unicode hex="0043"/>
  <note>
    uni0043
  </note>
  <outline>
    <contour>
      <point x="335" y="-12" type="qcurve"/>
      <point x="400" y="-12"/>
      <point x="497" y="38"/>
      <point x="535" y="83" type="qcurve"/>
      <point x="495" y="127" type="line"/>
      <point x="463" y="91"/>
      <point x="387" y="51"/>
      <point x="338" y="51" type="qcurve"/>
      <point x="273" y="51"/>
      <point x="178" y="120"/>
      <point x="127" y="245"/>
      <point x="127" y="330" type="qcurve"/>
      <point x="127" y="415"/>
      <point x="180" y="539"/>
      <point x="277" y="606"/>
      <point x="342" y="606" type="qcurve"/>
      <point x="385" y="606"/>
      <point x="452" y="571"/>
      <point x="479" y="542" type="qcurve"/>
      <point x="518" y="589" type="line"/>
      <point x="491" y="620"/>
      <point x="400" y="669"/>
      <point x="341" y="669" type="qcurve"/>
      <point x="278" y="669"/>
      <point x="173" y="623"/>
      <point x="95" y="533"/>
      <point x="53" y="408"/>
      <point x="53" y="329" type="qcurve"/>
      <point x="53" y="223"/>
      <point x="126" y="70"/>
      <point x="254" y="-12"/>
    </contour>
  </outline>
</glyph>
<glyph name="D" format="1">
  <advance width="612"/>
  <unicode hex="0044"/>
  <note>
    uni0044
  </note>
  <outline>
    <contour>
      <point x="92" y="657" type="line"/>
      <point x="92" y="0" type="line"/>
      <point x="255" y="0" type="line" smooth="yes"/>
      <point x="355" y="0"/>
      <point x="490" y="79"/>
      <point x="559" y="228"/>
      <point x="559" y="331" type="qcurve"/>
      <point x="559" y="434"/>
      <point x="490" y="580"/>
      <point x="354" y="657"/>
      <point x="253" y="657" type="qcurve"/>
    </contour>
    <contour>
      <point x="247" y="59" type="qcurve"/>
      <point x="164" y="59" type="line"/>
      <point x="164" y="598" type="line"/>
      <point x="247" y="598" type="line" smooth="yes"/>
      <point x="328" y="598"/>
      <point x="433" y="535"/>
      <point x="485" y="415"/>
      <point x="485" y="331" type="qcurve"/>
      <point x="485" y="247"/>
      <point x="433" y="125"/>
      <point x="328" y="59"/>
    </contour>
  </outline>
</glyph>
<glyph name="E" format="1">
  <advance width="523"/>
  <unicode hex="0045"/>
  <note>
    uni0045
  </note>
  <outline>
    <contour>
      <point x="92" y="657" type="line"/>
      <point x="92" y="0" type="line"/>
      <point x="475" y="0" type="line"/>
      <point x="475" y="61" type="line"/>
      <point x="164" y="61" type="line"/>
      <point x="164" y="316" type="line"/>
      <point x="417" y="316" type="line"/>
      <point x="417" y="377" type="line"/>
      <point x="164" y="377" type="line"/>
      <point x="164" y="596" type="line"/>
      <point x="465" y="596" type="line"/>
      <point x="465" y="657" type="line"/>
    </contour>
  </outline>
</glyph>
<glyph name="F" format="1">
  <advance width="489"/>
  <unicode hex="0046"/>
  <note>
    uni0046
  </note>
  <outline>
    <contour>
      <point x="92" y="657" type="line"/>
      <point x="92" y="0" type="line"/>
      <point x="164" y="0" type="line"/>
      <point x="164" y="301" type="line"/>
      <point x="418" y="301" type="line"/>
      <point x="418" y="362" type="line"/>
      <point x="164" y="362" type="line"/>
      <point x="164" y="596" type="line"/>
      <point x="464" y="596" type="line"/>
      <point x="464" y="657" type="line"/>
    </contour>
  </outline>
</glyph>
<glyph name="G" format="1">
  <advance width="613"/>
  <unicode hex="0047"/>
  <note>
    uni0047
  </note>
  <outline>
    <contour>
      <point x="345" y="-12" type="qcurve"/>
      <point x="411" y="-12"/>
      <point x="513" y="31"/>
      <point x="545" y="64" type="qcurve"/>
      <point x="545" y="335" type="line"/>
      <point x="334" y="335" type="line"/>
      <point x="334" y="275" type="line"/>
      <point x="479" y="275" type="line"/>
      <point x="479" y="93" type="line"/>
      <point x="458" y="74"/>
      <point x="390" y="51"/>
      <point x="351" y="51" type="qcurve"/>
      <point x="280" y="51"/>
      <point x="179" y="120"/>
      <point x="127" y="245"/>
      <point x="127" y="330" type="qcurve"/>
      <point x="127" y="415"/>
      <point x="182" y="539"/>
      <point x="283" y="606"/>
      <point x="352" y="606" type="qcurve"/>
      <point x="404" y="606"/>
      <point x="472" y="569"/>
      <point x="497" y="542" type="qcurve"/>
      <point x="537" y="589" type="line"/>
      <point x="509" y="618"/>
      <point x="418" y="669"/>
      <point x="351" y="669" type="qcurve"/>
      <point x="286" y="669"/>
      <point x="177" y="623"/>
      <point x="97" y="533"/>
      <point x="53" y="408"/>
      <point x="53" y="329" type="qcurve"/>
      <point x="53" y="223"/>
      <point x="127" y="70"/>
      <point x="259" y="-12"/>
    </contour>
  </outline>
</glyph>
<glyph name="H" format="1">
  <advance width="648"/>
  <unicode hex="0048"/>
  <note>
    uni0048
  </note>
  <outline>
    <contour>
      <point x="92" y="657" type="line"/>
      <point x="92" y="0" type="line"/>
      <point x="164" y="0" type="line"/>
      <point x="164" y="315" type="line"/>
      <point x="484" y="315" type="line"/>
      <point x="484" y="0" type="line"/>
      <point x="555" y="0" type="line"/>
      <point x="555" y="657" type="line"/>
      <point x="484" y="657" type="line"/>
      <point x="484" y="378" type="line"/>
      <point x="164" y="378" type="line"/>
      <point x="164" y="657" type="line"/>
    </contour>
  </outline>
</glyph>
<glyph name="I" format="1">
  <advance width="256"/>
  <unicode hex="0049"/>
  <note>
    uni0049
  </note>
  <outline>
    <contour>
      <point x="92" y="657" type="line"/>
      <point x="92" y="0" type="line"/>
      <point x="164" y="0" type="line"/>
      <point x="164" y="657" type="line"/>
    </contour>
  </outline>
</glyph>
<glyph name="J" format="1">
  <advance width="474"/>
  <unicode hex="004A"/>
  <note>
    uni004A
  </note>
  <outline>
    <contour>
      <point x="209" y="-12" type="qcurve"/>
      <point x="272" y="-12"/>
      <point x="349" y="42"/>
      <point x="385" y="133"/>
      <point x="385" y="189" type="qcurve"/>
      <point x="385" y="657" type="line"/>
      <point x="313" y="657" type="line"/>
      <point x="313" y="195" type="line" smooth="yes"/>
      <point x="313" y="119"/>
      <point x="259" y="51"/>
      <point x="204" y="51" type="qcurve"/>
      <point x="167" y="51"/>
      <point x="109" y="87"/>
      <point x="86" y="126" type="qcurve"/>
      <point x="34" y="90" type="line"/>
      <point x="62" y="40"/>
      <point x="149" y="-12"/>
    </contour>
  </outline>
</glyph>
<glyph name="K" format="1">
  <advance width="572"/>
  <unicode hex="004B"/>
  <note>
    uni004B
  </note>
  <outline>
    <contour>
      <point x="92" y="657" type="line"/>
      <point x="92" y="0" type="line"/>
      <point x="164" y="0" type="line"/>
      <point x="164" y="214" type="line"/>
      <point x="283" y="353" type="line"/>
      <point x="486" y="0" type="line"/>
      <point x="566" y="0" type="line"/>
      <point x="328" y="409" type="line"/>
      <point x="535" y="657" type="line"/>
      <point x="454" y="657" type="line"/>
      <point x="166" y="316" type="line"/>
      <point x="164" y="316" type="line"/>
      <point x="164" y="657" type="line"/>
    </contour>
  </outline>
</glyph>
<glyph name="L" format="1">
  <advance width="480"/>
  <unicode hex="004C"/>
  <note>
    uni004C
  </note>
  <outline>
    <contour>
      <point x="92" y="657" type="line"/>
      <point x="92" y="0" type="line"/>
      <point x="456" y="0" type="line"/>
      <point x="456" y="61" type="line"/>
      <point x="164" y="61" type="line"/>
      <point x="164" y="657" type="line"/>
    </contour>
  </outline>
</glyph>
<glyph name="M" format="1">
  <advance width="720"/>
  <unicode hex="004D"/>
  <note>
    uni004D
  </note>
  <outline>
    <contour>
      <point x="92" y="657" type="line"/>
      <point x="92" y="0" type="line"/>
      <point x="157" y="0" type="line"/>
      <point x="157" y="384" type="line" smooth="yes"/>
      <point x="157" y="412"/>
      <point x="154" y="478"/>
      <point x="150" y="545"/>
      <point x="148" y="573" type="qcurve"/>
      <point x="152" y="573" type="line"/>
      <point x="204" y="424" type="line"/>
      <point x="334" y="68" type="line"/>
      <point x="385" y="68" type="line"/>
      <point x="514" y="424" type="line"/>
      <point x="566" y="573" type="line"/>
      <point x="570" y="573" type="line"/>
      <point x="568" y="545"/>
      <point x="564" y="478"/>
      <point x="561" y="412"/>
      <point x="561" y="384" type="qcurve"/>
      <point x="561" y="0" type="line"/>
      <point x="628" y="0" type="line"/>
      <point x="628" y="657" type="line"/>
      <point x="539" y="657" type="line"/>
      <point x="410" y="295" type="line" smooth="yes"/>
      <point x="398" y="261"/>
      <point x="376" y="191"/>
      <point x="363" y="155" type="qcurve"/>
      <point x="359" y="155" type="line"/>
      <point x="347" y="191"/>
      <point x="324" y="261"/>
      <point x="311" y="295" type="qcurve"/>
      <point x="181" y="657" type="line"/>
    </contour>
  </outline>
</glyph>
<glyph name="N" format="1">
  <advance width="643"/>
  <unicode hex="004E"/>
  <note>
    uni004E
  </note>
  <outline>
    <contour>
      <point x="92" y="657" type="line"/>
      <point x="92" y="0" type="line"/>
      <point x="160" y="0" type="line"/>
      <point x="160" y="365" type="line" smooth="yes"/>
      <point x="160" y="415"/>
      <point x="154" y="515"/>
      <point x="151" y="564" type="qcurve"/>
      <point x="155" y="564" type="line"/>
      <point x="227" y="430" type="line"/>
      <point x="477" y="0" type="line"/>
      <point x="551" y="0" type="line"/>
      <point x="551" y="657" type="line"/>
      <point x="483" y="657" type="line"/>
      <point x="483" y="297" type="line" smooth="yes"/>
      <point x="483" y="247"/>
      <point x="490" y="143"/>
      <point x="492" y="93" type="qcurve"/>
      <point x="488" y="93" type="line"/>
      <point x="416" y="228" type="line"/>
      <point x="166" y="657" type="line"/>
    </contour>
  </outline>
</glyph>
<glyph name="O" format="1">
  <advance width="660"/>
  <unicode hex="004F"/>
  <note>
    uni004F
  </note>
  <outline>
    <contour>
      <point x="330" y="-12" type="qcurve"/>
      <point x="412" y="-12"/>
      <point x="537" y="72"/>
      <point x="608" y="226"/>
      <point x="608" y="331" type="qcurve"/>
      <point x="608" y="436"/>
      <point x="537" y="588"/>
      <point x="412" y="669"/>
      <point x="330" y="669" type="qcurve"/>
      <point x="249" y="669"/>
      <point x="124" y="588"/>
      <point x="53" y="436"/>
      <point x="53" y="331" type="qcurve"/>
      <point x="53" y="226"/>
      <point x="124" y="72"/>
      <point x="249" y="-12"/>
    </contour>
    <contour>
      <point x="330" y="51" type="qcurve"/>
      <point x="269" y="51"/>
      <point x="178" y="121"/>
      <point x="127" y="246"/>
      <point x="127" y="331" type="qcurve"/>
      <point x="127" y="416"/>
      <point x="178" y="539"/>
      <point x="269" y="606"/>
      <point x="330" y="606" type="qcurve"/>
      <point x="391" y="606"/>
      <point x="483" y="539"/>
      <point x="534" y="416"/>
      <point x="534" y="331" type="qcurve"/>
      <point x="534" y="246"/>
      <point x="483" y="121"/>
      <point x="391" y="51"/>
    </contour>
  </outline>
</glyph>
<glyph name="P" format="1">
  <advance width="561"/>
  <unicode hex="0050"/>
  <note>
    uni0050
  </note>
  <outline>
    <contour>
      <point x="92" y="657" type="line"/>
      <point x="92" y="0" type="line"/>
      <point x="164" y="0" type="line"/>
      <point x="164" y="268" type="line"/>
      <point x="277" y="268" type="line" smooth="yes"/>
      <point x="349" y="268"/>
      <point x="457" y="311"/>
      <point x="517" y="400"/>
      <point x="517" y="467" type="qcurve"/>
      <point x="517" y="538"/>
      <point x="456" y="621"/>
      <point x="347" y="657"/>
      <point x="273" y="657" type="qcurve"/>
    </contour>
    <contour>
      <point x="266" y="326" type="qcurve"/>
      <point x="164" y="326" type="line"/>
      <point x="164" y="599" type="line"/>
      <point x="262" y="599" type="line" smooth="yes"/>
      <point x="353" y="599"/>
      <point x="445" y="542"/>
      <point x="445" y="467" type="qcurve"/>
      <point x="445" y="394"/>
      <point x="357" y="326"/>
    </contour>
  </outline>
</glyph>
<glyph name="Q" format="1">
  <advance width="660"/>
  <unicode hex="0051"/>
  <note>
    uni0051
  </note>
  <outline>
    <contour>
      <point x="330" y="-12" type="qcurve"/>
      <point x="412" y="-12"/>
      <point x="537" y="72"/>
      <point x="608" y="226"/>
      <point x="608" y="331" type="qcurve"/>
      <point x="608" y="436"/>
      <point x="537" y="588"/>
      <point x="412" y="669"/>
      <point x="330" y="669" type="qcurve"/>
      <point x="249" y="669"/>
      <point x="124" y="588"/>
      <point x="53" y="436"/>
      <point x="53" y="331" type="qcurve"/>
      <point x="53" y="226"/>
      <point x="124" y="72"/>
      <point x="249" y="-12"/>
    </contour>
    <contour>
      <point x="330" y="48" type="qcurve"/>
      <point x="269" y="48"/>
      <point x="178" y="118"/>
      <point x="127" y="245"/>
      <point x="127" y="331" type="qcurve"/>
      <point x="127" y="416"/>
      <point x="178" y="539"/>
      <point x="269" y="606"/>
      <point x="330" y="606" type="qcurve"/>
      <point x="391" y="606"/>
      <point x="483" y="539"/>
      <point x="534" y="416"/>
      <point x="534" y="331" type="qcurve"/>
      <point x="534" y="245"/>
      <point x="483" y="118"/>
      <point x="391" y="48"/>
    </contour>
    <contour>
      <point x="529" y="-162" type="qcurve"/>
      <point x="557" y="-162"/>
      <point x="604" y="-153"/>
      <point x="618" y="-148" type="qcurve"/>
      <point x="604" y="-92" type="line"/>
      <point x="591" y="-95"/>
      <point x="558" y="-101"/>
      <point x="536" y="-101" type="qcurve"/>
      <point x="496" y="-101"/>
      <point x="428" y="-77"/>
      <point x="378" y="-29"/>
      <point x="365" y="7" type="qcurve"/>
      <point x="290" y="2" type="line"/>
      <point x="315" y="-68"/>
      <point x="437" y="-162"/>
    </contour>
  </outline>
</glyph>
<glyph name="R" format="1">
  <advance width="561"/>
  <unicode hex="0052"/>
  <note>
    uni0052
  </note>
  <outline>
    <contour>
      <point x="92" y="657" type="line"/>
      <point x="92" y="0" type="line"/>
      <point x="164" y="0" type="line"/>
      <point x="164" y="285" type="line"/>
      <point x="292" y="285" type="line" smooth="yes"/>
      <point x="359" y="285"/>
      <point x="460" y="328"/>
      <point x="518" y="412"/>
      <point x="518" y="476" type="qcurve"/>
      <point x="518" y="543"/>
      <point x="460" y="622"/>
      <point x="359" y="657"/>
      <point x="292" y="657" type="qcurve"/>
    </contour>
    <contour>
      <point x="280" y="344" type="qcurve"/>
      <point x="164" y="344" type="line"/>
      <point x="164" y="599" type="line"/>
      <point x="280" y="599" type="line" smooth="yes"/>
      <point x="361" y="599"/>
      <point x="446" y="544"/>
      <point x="446" y="476" type="qcurve"/>
      <point x="446" y="409"/>
      <point x="361" y="344"/>
    </contour>
    <contour>
      <point x="278" y="305" type="line"/>
      <point x="454" y="0" type="line"/>
      <point x="535" y="0" type="line"/>
      <point x="336" y="339" type="line"/>
    </contour>
  </outline>
</glyph>
<glyph name="S" format="1">
  <advance width="530"/>
  <unicode hex="0053"/>
  <note>
    uni0053
  </note>
  <outline>
    <contour>
      <point x="271" y="-12" type="qcurve"/>
      <point x="338" y="-12"/>
      <point x="437" y="37"/>
      <point x="490" y="120"/>
      <point x="490" y="172" type="qcurve"/>
      <point x="490" y="221"/>
      <point x="453" y="287"/>
      <point x="392" y="331"/>
      <point x="354" y="347" type="qcurve"/>
      <point x="259" y="388" type="line"/>
      <point x="234" y="400"/>
      <point x="182" y="427"/>
      <point x="148" y="469"/>
      <point x="148" y="503" type="qcurve"/>
      <point x="148" y="550"/>
      <point x="220" y="606"/>
      <point x="278" y="606" type="qcurve"/>
      <point x="325" y="606"/>
      <point x="400" y="572"/>
      <point x="429" y="542" type="qcurve"/>
      <point x="468" y="589" type="line"/>
      <point x="435" y="623"/>
      <point x="337" y="669"/>
      <point x="278" y="669" type="qcurve"/>
      <point x="220" y="669"/>
      <point x="129" y="625"/>
      <point x="76" y="548"/>
      <point x="76" y="499" type="qcurve"/>
      <point x="76" y="450"/>
      <point x="118" y="386"/>
      <point x="179" y="345"/>
      <point x="209" y="331" type="qcurve"/>
      <point x="305" y="289" type="line" smooth="yes"/>
      <point x="337" y="275"/>
      <point x="387" y="246"/>
      <point x="418" y="202"/>
      <point x="418" y="166" type="qcurve"/>
      <point x="418" y="115"/>
      <point x="340" y="51"/>
      <point x="272" y="51" type="qcurve"/>
      <point x="219" y="51"/>
      <point x="123" y="97"/>
      <point x="87" y="135" type="qcurve"/>
      <point x="43" y="86" type="line"/>
      <point x="86" y="42"/>
      <point x="201" y="-12"/>
    </contour>
  </outline>
</glyph>
<glyph name="T" format="1">
  <advance width="532"/>
  <unicode hex="0054"/>
  <note>
    uni0054
  </note>
  <outline>
    <contour>
      <point x="230" y="596" type="line"/>
      <point x="230" y="0" type="line"/>
      <point x="302" y="0" type="line"/>
      <point x="302" y="596" type="line"/>
      <point x="504" y="596" type="line"/>
      <point x="504" y="657" type="line"/>
      <point x="28" y="657" type="line"/>
      <point x="28" y="596" type="line"/>
    </contour>
  </outline>
</glyph>
<glyph name="U" format="1">
  <advance width="642"/>
  <unicode hex="0055"/>
  <note>
    uni0055
  </note>
  <outline>
    <contour>
      <point x="321" y="-12" type="qcurve"/>
      <point x="369" y="-12"/>
      <point x="452" y="17"/>
      <point x="516" y="80"/>
      <point x="552" y="187"/>
      <point x="552" y="265" type="qcurve"/>
      <point x="552" y="657" type="line"/>
      <point x="484" y="657" type="line"/>
      <point x="484" y="265" type="line" smooth="yes"/>
      <point x="484" y="184"/>
      <point x="440" y="90"/>
      <point x="366" y="51"/>
      <point x="321" y="51" type="qcurve"/>
      <point x="277" y="51"/>
      <point x="204" y="90"/>
      <point x="161" y="184"/>
      <point x="161" y="265" type="qcurve"/>
      <point x="161" y="657" type="line"/>
      <point x="90" y="657" type="line"/>
      <point x="90" y="265" type="line" smooth="yes"/>
      <point x="90" y="187"/>
      <point x="125" y="80"/>
      <point x="189" y="17"/>
      <point x="273" y="-12"/>
    </contour>
  </outline>
</glyph>
<glyph name="V" format="1">
  <advance width="507"/>
  <unicode hex="0056"/>
  <note>
    uni0056
  </note>
  <outline>
    <contour>
      <point x="1" y="657" type="line"/>
      <point x="214" y="0" type="line"/>
      <point x="295" y="0" type="line"/>
      <point x="506" y="657" type="line"/>
      <point x="433" y="657" type="line"/>
      <point x="323" y="293" type="line" smooth="yes"/>
      <point x="305" y="234"/>
      <point x="277" y="133"/>
      <point x="258" y="75" type="qcurve"/>
      <point x="254" y="75" type="line"/>
      <point x="235" y="133"/>
      <point x="207" y="234"/>
      <point x="188" y="293" type="qcurve"/>
      <point x="77" y="657" type="line"/>
    </contour>
  </outline>
</glyph>
<glyph name="W" format="1">
  <advance width="781"/>
  <unicode hex="0057"/>
  <note>
    uni0057
  </note>
  <outline>
    <contour>
      <point x="24" y="657" type="line"/>
      <point x="167" y="0" type="line"/>
      <point x="250" y="0" type="line"/>
      <point x="354" y="413" type="line" smooth="yes"/>
      <point x="363" y="452"/>
      <point x="381" y="524"/>
      <point x="388" y="562" type="qcurve"/>
      <point x="392" y="562" type="line"/>
      <point x="400" y="524"/>
      <point x="417" y="452"/>
      <point x="425" y="413" type="qcurve"/>
      <point x="531" y="0" type="line"/>
      <point x="616" y="0" type="line"/>
      <point x="755" y="657" type="line"/>
      <point x="686" y="657" type="line"/>
      <point x="613" y="290" type="line" smooth="yes"/>
      <point x="603" y="237"/>
      <point x="583" y="131"/>
      <point x="573" y="77" type="qcurve"/>
      <point x="569" y="77" type="line"/>
      <point x="557" y="131"/>
      <point x="533" y="237"/>
      <point x="520" y="290" type="qcurve"/>
      <point x="425" y="657" type="line"/>
      <point x="359" y="657" type="line"/>
      <point x="264" y="290" type="line" smooth="yes"/>
      <point x="252" y="237"/>
      <point x="228" y="130"/>
      <point x="216" y="77" type="qcurve"/>
      <point x="212" y="77" type="line"/>
      <point x="202" y="130"/>
      <point x="182" y="237"/>
      <point x="172" y="290" type="qcurve"/>
      <point x="98" y="657" type="line"/>
    </contour>
  </outline>
</glyph>
<glyph name="X" format="1">
  <advance width="503"/>
  <unicode hex="0058"/>
  <note>
    uni0058
  </note>
  <outline>
    <contour>
      <point x="209" y="340" type="line"/>
      <point x="16" y="0" type="line"/>
      <point x="91" y="0" type="line"/>
      <point x="192" y="185" type="line" smooth="yes"/>
      <point x="205" y="209"/>
      <point x="231" y="260"/>
      <point x="245" y="290" type="qcurve"/>
      <point x="249" y="290" type="line"/>
      <point x="266" y="260"/>
      <point x="294" y="209"/>
      <point x="307" y="185" type="qcurve"/>
      <point x="409" y="0" type="line"/>
      <point x="488" y="0" type="line"/>
      <point x="294" y="336" type="line"/>
      <point x="475" y="657" type="line"/>
      <point x="400" y="657" type="line"/>
      <point x="306" y="481" type="line" smooth="yes"/>
      <point x="294" y="459"/>
      <point x="272" y="416"/>
      <point x="259" y="387" type="qcurve"/>
      <point x="255" y="387" type="line"/>
      <point x="239" y="416"/>
      <point x="216" y="459"/>
      <point x="203" y="481" type="qcurve"/>
      <point x="107" y="657" type="line"/>
      <point x="29" y="657" type="line"/>
    </contour>
  </outline>
</glyph>
<glyph name="Y" format="1">
  <advance width="466"/>
  <unicode hex="0059"/>
  <note>
    uni0059
  </note>
  <outline>
    <contour>
      <point x="197" y="258" type="line"/>
      <point x="197" y="0" type="line"/>
      <point x="269" y="0" type="line"/>
      <point x="269" y="258" type="line"/>
      <point x="466" y="657" type="line"/>
      <point x="393" y="657" type="line"/>
      <point x="303" y="465" type="line"/>
      <point x="288" y="429"/>
      <point x="254" y="359"/>
      <point x="236" y="322" type="qcurve"/>
      <point x="232" y="322" type="line"/>
      <point x="214" y="359"/>
      <point x="182" y="429"/>
      <point x="166" y="465" type="qcurve"/>
      <point x="76" y="657" type="line"/>
      <point x="0" y="657" type="line"/>
    </contour>
  </outline>
</glyph>
<glyph name="Z" format="1">
  <advance width="539"/>
  <unicode hex="005A"/>
  <note>
    uni005A
  </note>
  <outline>
    <contour>
      <point x="46" y="42" type="line"/>
      <point x="46" y="0" type="line"/>
      <point x="495" y="0" type="line"/>
      <point x="495" y="61" type="line"/>
      <point x="135" y="61" type="line"/>
      <point x="491" y="615" type="line"/>
      <point x="491" y="657" type="line"/>
      <point x="78" y="657" type="line"/>
      <point x="78" y="596" type="line"/>
      <point x="403" y="596" type="line"/>
    </contour>
  </outline>
</glyph>
<glyph name="a" format="1">
  <advance width="500"/>
  <unicode hex="0061"/>
  <note>
    uni0061
  </note>
  <outline>
    <contour>
      <point x="195" y="-12" type="qcurve"/>
      <point x="241" y="-12"/>
      <point x="324" y="30"/>
      <point x="359" y="59" type="qcurve"/>
      <point x="362" y="59" type="line"/>
      <point x="368" y="0" type="line"/>
      <point x="426" y="0" type="line"/>
      <point x="426" y="301" type="line" smooth="yes"/>
      <point x="426" y="359"/>
      <point x="393" y="446"/>
      <point x="321" y="496"/>
      <point x="263" y="496" type="qcurve"/>
      <point x="224" y="496"/>
      <point x="154" y="476"/>
      <point x="96" y="447"/>
      <point x="76" y="433" type="qcurve"/>
      <point x="104" y="384" type="line"/>
      <point x="131" y="403"/>
      <point x="207" y="438"/>
      <point x="251" y="438" type="qcurve"/>
      <point x="294" y="438"/>
      <point x="339" y="399"/>
      <point x="356" y="338"/>
      <point x="356" y="305" type="qcurve"/>
      <point x="199" y="288"/>
      <point x="54" y="203"/>
      <point x="54" y="124" type="qcurve"/>
      <point x="54" y="80"/>
      <point x="91" y="20"/>
      <point x="155" y="-12"/>
    </contour>
    <contour>
      <point x="214" y="45" type="qcurve"/>
      <point x="176" y="45"/>
      <point x="123" y="84"/>
      <point x="123" y="129" type="qcurve"/>
      <point x="123" y="162"/>
      <point x="167" y="213"/>
      <point x="269" y="248"/>
      <point x="356" y="258" type="qcurve"/>
      <point x="356" y="114" type="line"/>
      <point x="318" y="81"/>
      <point x="251" y="45"/>
    </contour>
  </outline>
</glyph>
<glyph name="b" format="1">
  <advance width="550"/>
  <unicode hex="0062"/>
  <note>
    uni0062
  </note>
  <outline>
    <contour>
      <point x="291" y="-12" type="qcurve"/>
      <point x="347" y="-12"/>
      <point x="443" y="50"/>
      <point x="502" y="167"/>
      <point x="502" y="250" type="qcurve"/>
      <point x="502" y="325"/>
      <point x="459" y="435"/>
      <point x="373" y="496"/>
      <point x="310" y="496" type="qcurve"/>
      <point x="268" y="496"/>
      <point x="187" y="456"/>
      <point x="153" y="426" type="qcurve"/>
      <point x="155" y="515" type="line"/>
      <point x="155" y="715" type="line"/>
      <point x="85" y="715" type="line"/>
      <point x="85" y="0" type="line"/>
      <point x="142" y="0" type="line"/>
      <point x="149" y="50" type="line"/>
      <point x="151" y="50" type="line"/>
      <point x="184" y="21"/>
      <point x="258" y="-12"/>
    </contour>
    <contour>
      <point x="281" y="48" type="qcurve"/>
      <point x="256" y="48"/>
      <point x="190" y="72"/>
      <point x="155" y="102" type="qcurve"/>
      <point x="155" y="366" type="line"/>
      <point x="192" y="401"/>
      <point x="262" y="437"/>
      <point x="294" y="437" type="qcurve"/>
      <point x="343" y="437"/>
      <point x="402" y="389"/>
      <point x="430" y="304"/>
      <point x="430" y="249" type="qcurve"/>
      <point x="430" y="187"/>
      <point x="391" y="97"/>
      <point x="324" y="48"/>
    </contour>
  </outline>
</glyph>
<glyph name="c" format="1">
  <advance width="453"/>
  <unicode hex="0063"/>
  <note>
    uni0063
  </note>
  <outline>
    <contour>
      <point x="273" y="-12" type="qcurve"/>
      <point x="317" y="-12"/>
      <point x="396" y="22"/>
      <point x="428" y="50" type="qcurve"/>
      <point x="397" y="98" type="line"/>
      <point x="374" y="77"/>
      <point x="314" y="47"/>
      <point x="278" y="47" type="qcurve"/>
      <point x="231" y="47"/>
      <point x="160" y="96"/>
      <point x="120" y="183"/>
      <point x="120" y="241" type="qcurve"/>
      <point x="120" y="299"/>
      <point x="162" y="388"/>
      <point x="234" y="437"/>
      <point x="280" y="437" type="qcurve"/>
      <point x="311" y="437"/>
      <point x="360" y="412"/>
      <point x="382" y="392" type="qcurve"/>
      <point x="419" y="438" type="line"/>
      <point x="394" y="462"/>
      <point x="326" y="496"/>
      <point x="277" y="496" type="qcurve"/>
      <point x="216" y="496"/>
      <point x="112" y="436"/>
      <point x="48" y="322"/>
      <point x="48" y="241" type="qcurve"/>
      <point x="48" y="161"/>
      <point x="107" y="48"/>
      <point x="209" y="-12"/>
    </contour>
  </outline>
</glyph>
<glyph name="d" format="1">
  <advance width="551"/>
  <unicode hex="0064"/>
  <note>
    uni0064
  </note>
  <outline>
    <contour>
      <point x="249" y="-12" type="qcurve"/>
      <point x="294" y="-12"/>
      <point x="370" y="30"/>
      <point x="399" y="59" type="qcurve"/>
      <point x="402" y="59" type="line"/>
      <point x="408" y="0" type="line"/>
      <point x="466" y="0" type="line"/>
      <point x="466" y="715" type="line"/>
      <point x="396" y="715" type="line"/>
      <point x="396" y="524" type="line"/>
      <point x="399" y="439" type="line"/>
      <point x="366" y="466"/>
      <point x="303" y="496"/>
      <point x="260" y="496" type="qcurve"/>
      <point x="204" y="496"/>
      <point x="108" y="434"/>
      <point x="49" y="320"/>
      <point x="49" y="241" type="qcurve"/>
      <point x="49" y="120"/>
      <point x="158" y="-12"/>
    </contour>
    <contour>
      <point x="263" y="48" type="qcurve"/>
      <point x="195" y="48"/>
      <point x="122" y="152"/>
      <point x="122" y="242" type="qcurve"/>
      <point x="122" y="299"/>
      <point x="162" y="387"/>
      <point x="229" y="437"/>
      <point x="271" y="437" type="qcurve"/>
      <point x="303" y="437"/>
      <point x="363" y="412"/>
      <point x="396" y="382" type="qcurve"/>
      <point x="396" y="118" type="line"/>
      <point x="364" y="83"/>
      <point x="299" y="48"/>
    </contour>
  </outline>
</glyph>
<glyph name="e" format="1">
  <advance width="492"/>
  <unicode hex="0065"/>
  <note>
    uni0065
  </note>
  <outline>
    <contour>
      <point x="277" y="-12" type="qcurve"/>
      <point x="328" y="-12"/>
      <point x="404" y="18"/>
      <point x="435" y="37" type="qcurve"/>
      <point x="409" y="85" type="line"/>
      <point x="382" y="67"/>
      <point x="322" y="45"/>
      <point x="285" y="45" type="qcurve"/>
      <point x="236" y="45"/>
      <point x="163" y="91"/>
      <point x="120" y="172"/>
      <point x="118" y="227" type="qcurve"/>
      <point x="451" y="227" type="line"/>
      <point x="453" y="236"/>
      <point x="454" y="259"/>
      <point x="454" y="270" type="qcurve"/>
      <point x="454" y="340"/>
      <point x="409" y="441"/>
      <point x="324" y="496"/>
      <point x="263" y="496" type="qcurve"/>
      <point x="208" y="496"/>
      <point x="110" y="434"/>
      <point x="48" y="320"/>
      <point x="48" y="241" type="qcurve"/>
      <point x="48" y="162"/>
      <point x="109" y="49"/>
      <point x="213" y="-12"/>
    </contour>
    <contour>
      <point x="391" y="278" type="qcurve"/>
      <point x="117" y="278" type="line"/>
      <point x="122" y="329"/>
      <point x="164" y="401"/>
      <point x="228" y="439"/>
      <point x="265" y="439" type="qcurve"/>
      <point x="324" y="439"/>
      <point x="391" y="358"/>
    </contour>
  </outline>
</glyph>
<glyph name="f" format="1">
  <advance width="282"/>
  <unicode hex="0066"/>
  <note>
    uni0066
  </note>
  <outline>
    <contour>
      <point x="97" y="571" type="qcurve"/>
      <point x="97" y="0" type="line"/>
      <point x="167" y="0" type="line"/>
      <point x="167" y="569" type="line" smooth="yes"/>
      <point x="167" y="618"/>
      <point x="202" y="669"/>
      <point x="237" y="669" type="qcurve"/>
      <point x="251" y="669"/>
      <point x="279" y="663"/>
      <point x="293" y="656" type="qcurve"/>
      <point x="309" y="710" type="line"/>
      <point x="293" y="718"/>
      <point x="252" y="727"/>
      <point x="231" y="727" type="qcurve"/>
      <point x="186" y="727"/>
      <point x="126" y="689"/>
      <point x="97" y="620"/>
    </contour>
    <contour>
      <point x="31" y="480" type="line"/>
      <point x="31" y="426" type="line"/>
      <point x="272" y="426" type="line"/>
      <point x="272" y="484" type="line"/>
      <point x="99" y="484" type="line"/>
    </contour>
  </outline>
</glyph>
<glyph name="g" format="1">
  <advance width="499"/>
  <unicode hex="0067"/>
  <note>
    uni0067
  </note>
  <outline>
    <contour>
      <point x="247" y="-226" type="qcurve"/>
      <point x="320" y="-226"/>
      <point x="428" y="-179"/>
      <point x="487" y="-104"/>
      <point x="487" y="-60" type="qcurve"/>
      <point x="487" y="0"/>
      <point x="405" y="54"/>
      <point x="321" y="54" type="qcurve"/>
      <point x="224" y="54" type="line" smooth="yes"/>
      <point x="174" y="54"/>
      <point x="136" y="86"/>
      <point x="136" y="110" type="qcurve"/>
      <point x="136" y="132"/>
      <point x="156" y="160"/>
      <point x="170" y="171" type="qcurve"/>
      <point x="187" y="163"/>
      <point x="226" y="154"/>
      <point x="245" y="154" type="qcurve"/>
      <point x="293" y="154"/>
      <point x="372" y="196"/>
      <point x="419" y="271"/>
      <point x="419" y="323" type="qcurve"/>
      <point x="419" y="356"/>
      <point x="395" y="412"/>
      <point x="375" y="429" type="qcurve"/>
      <point x="479" y="429" type="line"/>
      <point x="479" y="484" type="line"/>
      <point x="312" y="484" type="line"/>
      <point x="299" y="489"/>
      <point x="265" y="496"/>
      <point x="245" y="496" type="qcurve"/>
      <point x="196" y="496"/>
      <point x="115" y="454"/>
      <point x="66" y="376"/>
      <point x="66" y="324" type="qcurve"/>
      <point x="66" y="281"/>
      <point x="105" y="213"/>
      <point x="129" y="193" type="qcurve"/>
      <point x="129" y="189" type="line"/>
      <point x="111" y="177"/>
      <point x="76" y="131"/>
      <point x="76" y="100" type="qcurve"/>
      <point x="76" y="72"/>
      <point x="100" y="33"/>
      <point x="119" y="21" type="qcurve"/>
      <point x="119" y="17" type="line"/>
      <point x="85" y="-5"/>
      <point x="47" y="-63"/>
      <point x="47" y="-95" type="qcurve"/>
      <point x="47" y="-136"/>
      <point x="97" y="-195"/>
      <point x="187" y="-226"/>
    </contour>
    <contour>
      <point x="245" y="203" type="qcurve"/>
      <point x="215" y="203"/>
      <point x="165" y="233"/>
      <point x="135" y="287"/>
      <point x="135" y="324" type="qcurve"/>
      <point x="135" y="381"/>
      <point x="199" y="444"/>
      <point x="245" y="444" type="qcurve"/>
      <point x="275" y="444"/>
      <point x="325" y="415"/>
      <point x="355" y="362"/>
      <point x="355" y="324" type="qcurve"/>
      <point x="355" y="287"/>
      <point x="324" y="233"/>
      <point x="274" y="203"/>
    </contour>
    <contour>
      <point x="257" y="-176" type="qcurve"/>
      <point x="188" y="-176"/>
      <point x="110" y="-127"/>
      <point x="110" y="-86" type="qcurve"/>
      <point x="110" y="-63"/>
      <point x="135" y="-18"/>
      <point x="164" y="2" type="qcurve"/>
      <point x="181" y="-2"/>
      <point x="214" y="-5"/>
      <point x="226" y="-5" type="qcurve"/>
      <point x="316" y="-5" type="line" smooth="yes"/>
      <point x="365" y="-5"/>
      <point x="418" y="-34"/>
      <point x="418" y="-70" type="qcurve"/>
      <point x="418" y="-97"/>
      <point x="377" y="-146"/>
      <point x="305" y="-176"/>
    </contour>
  </outline>
</glyph>
<glyph name="h" format="1">
  <advance width="539"/>
  <unicode hex="0068"/>
  <note>
    uni0068
  </note>
  <outline>
    <contour>
      <point x="85" y="715" type="line"/>
      <point x="85" y="0" type="line"/>
      <point x="155" y="0" type="line"/>
      <point x="155" y="355" type="line"/>
      <point x="195" y="395"/>
      <point x="257" y="435"/>
      <point x="296" y="435" type="qcurve"/>
      <point x="348" y="435"/>
      <point x="393" y="370"/>
      <point x="393" y="299" type="qcurve"/>
      <point x="393" y="0" type="line"/>
      <point x="463" y="0" type="line"/>
      <point x="463" y="308" type="line" smooth="yes"/>
      <point x="463" y="401"/>
      <point x="393" y="496"/>
      <point x="316" y="496" type="qcurve"/>
      <point x="266" y="496"/>
      <point x="188" y="448"/>
      <point x="153" y="414" type="qcurve"/>
      <point x="155" y="515" type="line"/>
      <point x="155" y="715" type="line"/>
    </contour>
  </outline>
</glyph>
<glyph name="i" format="1">
  <advance width="241"/>
  <unicode hex="0069"/>
  <note>
    uni0069
  </note>
  <outline>
    <contour>
      <point x="85" y="484" type="line"/>
      <point x="85" y="0" type="line"/>
      <point x="155" y="0" type="line"/>
      <point x="155" y="484" type="line"/>
    </contour>
    <contour>
      <point x="121" y="589" type="qcurve"/>
      <point x="143" y="589"/>
      <point x="170" y="617"/>
      <point x="170" y="639" type="qcurve"/>
      <point x="170" y="661"/>
      <point x="143" y="688"/>
      <point x="121" y="688" type="qcurve"/>
      <point x="100" y="688"/>
      <point x="72" y="661"/>
      <point x="72" y="639" type="qcurve"/>
      <point x="72" y="617"/>
      <point x="100" y="589"/>
    </contour>
  </outline>
</glyph>
<glyph name="j" format="1">
  <advance width="241"/>
  <unicode hex="006A"/>
  <note>
    uni006A
  </note>
  <outline>
    <contour>
      <point x="31" y="-221" type="qcurve"/>
      <point x="76" y="-221"/>
      <point x="131" y="-184"/>
      <point x="156" y="-115"/>
      <point x="156" y="-66" type="qcurve"/>
      <point x="156" y="484" type="line"/>
      <point x="86" y="484" type="line"/>
      <point x="86" y="-65" type="line" smooth="yes"/>
      <point x="86" y="-109"/>
      <point x="62" y="-163"/>
      <point x="24" y="-163" type="qcurve"/>
      <point x="11" y="-163"/>
      <point x="-14" y="-157"/>
      <point x="-23" y="-154" type="qcurve"/>
      <point x="-37" y="-208" type="line"/>
      <point x="-25" y="-213"/>
      <point x="10" y="-221"/>
    </contour>
    <contour>
      <point x="119" y="589" type="qcurve"/>
      <point x="141" y="589"/>
      <point x="168" y="617"/>
      <point x="168" y="639" type="qcurve"/>
      <point x="168" y="661"/>
      <point x="141" y="688"/>
      <point x="119" y="688" type="qcurve"/>
      <point x="98" y="688"/>
      <point x="70" y="661"/>
      <point x="70" y="639" type="qcurve"/>
      <point x="70" y="617"/>
      <point x="98" y="589"/>
    </contour>
  </outline>
</glyph>
<glyph name="k" format="1">
  <advance width="485"/>
  <unicode hex="006B"/>
  <note>
    uni006B
  </note>
  <outline>
    <contour>
      <point x="85" y="715" type="line"/>
      <point x="85" y="0" type="line"/>
      <point x="154" y="0" type="line"/>
      <point x="154" y="129" type="line"/>
      <point x="251" y="241" type="line"/>
      <point x="398" y="0" type="line"/>
      <point x="475" y="0" type="line"/>
      <point x="291" y="291" type="line"/>
      <point x="452" y="484" type="line"/>
      <point x="374" y="484" type="line"/>
      <point x="157" y="217" type="line"/>
      <point x="154" y="217" type="line"/>
      <point x="154" y="715" type="line"/>
    </contour>
  </outline>
</glyph>
<glyph name="l" format="1">
  <advance width="249"/>
  <unicode hex="006C"/>
  <note>
    uni006C
  </note>
  <outline>
    <contour>
      <point x="163" y="-12" type="qcurve"/>
      <point x="178" y="-12"/>
      <point x="198" y="-8"/>
      <point x="206" y="-5" type="qcurve"/>
      <point x="196" y="49" type="line"/>
      <point x="189" y="48"/>
      <point x="181" y="47"/>
      <point x="178" y="47" type="qcurve"/>
      <point x="169" y="47"/>
      <point x="155" y="63"/>
      <point x="155" y="81" type="qcurve"/>
      <point x="155" y="715" type="line"/>
      <point x="85" y="715" type="line"/>
      <point x="85" y="87" type="line" smooth="yes"/>
      <point x="85" y="55"/>
      <point x="101" y="11"/>
      <point x="136" y="-12"/>
    </contour>
  </outline>
</glyph>
<glyph name="m" format="1">
  <advance width="823"/>
  <unicode hex="006D"/>
  <note>
    uni006D
  </note>
  <outline>
    <contour>
      <point x="85" y="484" type="line"/>
      <point x="85" y="0" type="line"/>
      <point x="155" y="0" type="line"/>
      <point x="155" y="355" type="line"/>
      <point x="226" y="435"/>
      <point x="284" y="435" type="qcurve"/>
      <point x="334" y="435"/>
      <point x="380" y="370"/>
      <point x="380" y="299" type="qcurve"/>
      <point x="380" y="0" type="line"/>
      <point x="450" y="0" type="line"/>
      <point x="450" y="355" type="line"/>
      <point x="486" y="395"/>
      <point x="549" y="435"/>
      <point x="579" y="435" type="qcurve"/>
      <point x="629" y="435"/>
      <point x="675" y="370"/>
      <point x="675" y="299" type="qcurve"/>
      <point x="675" y="0" type="line"/>
      <point x="745" y="0" type="line"/>
      <point x="745" y="308" type="line" smooth="yes"/>
      <point x="745" y="401"/>
      <point x="673" y="496"/>
      <point x="599" y="496" type="qcurve"/>
      <point x="555" y="496"/>
      <point x="476" y="445"/>
      <point x="437" y="402" type="qcurve"/>
      <point x="423" y="445"/>
      <point x="360" y="496"/>
      <point x="304" y="496" type="qcurve"/>
      <point x="261" y="496"/>
      <point x="184" y="448"/>
      <point x="152" y="412" type="qcurve"/>
      <point x="150" y="412" type="line"/>
      <point x="143" y="484" type="line"/>
    </contour>
  </outline>
</glyph>
<glyph name="n" format="1">
  <advance width="542"/>
  <unicode hex="006E"/>
  <note>
    uni006E
  </note>
  <outline>
    <contour>
      <point x="85" y="484" type="line"/>
      <point x="85" y="0" type="line"/>
      <point x="155" y="0" type="line"/>
      <point x="155" y="355" type="line"/>
      <point x="195" y="395"/>
      <point x="257" y="435"/>
      <point x="296" y="435" type="qcurve"/>
      <point x="348" y="435"/>
      <point x="393" y="370"/>
      <point x="393" y="299" type="qcurve"/>
      <point x="393" y="0" type="line"/>
      <point x="463" y="0" type="line"/>
      <point x="463" y="308" type="line" smooth="yes"/>
      <point x="463" y="401"/>
      <point x="393" y="496"/>
      <point x="316" y="496" type="qcurve"/>
      <point x="266" y="496"/>
      <point x="188" y="448"/>
      <point x="152" y="413" type="qcurve"/>
      <point x="150" y="413" type="line"/>
      <point x="143" y="484" type="line"/>
    </contour>
  </outline>
</glyph>
<glyph name="o" format="1">
  <advance width="540"/>
  <unicode hex="006F"/>
  <note>
    uni006F
  </note>
  <outline>
    <contour>
      <point x="270" y="-12" type="qcurve"/>
      <point x="329" y="-12"/>
      <point x="430" y="48"/>
      <point x="492" y="161"/>
      <point x="492" y="241" type="qcurve"/>
      <point x="492" y="322"/>
      <point x="430" y="436"/>
      <point x="329" y="496"/>
      <point x="270" y="496" type="qcurve"/>
      <point x="211" y="496"/>
      <point x="109" y="436"/>
      <point x="48" y="322"/>
      <point x="48" y="241" type="qcurve"/>
      <point x="48" y="161"/>
      <point x="109" y="48"/>
      <point x="211" y="-12"/>
    </contour>
    <contour>
      <point x="270" y="47" type="qcurve"/>
      <point x="226" y="47"/>
      <point x="159" y="96"/>
      <point x="120" y="183"/>
      <point x="120" y="241" type="qcurve"/>
      <point x="120" y="299"/>
      <point x="159" y="388"/>
      <point x="226" y="437"/>
      <point x="270" y="437" type="qcurve"/>
      <point x="314" y="437"/>
      <point x="382" y="388"/>
      <point x="419" y="299"/>
      <point x="419" y="241" type="qcurve"/>
      <point x="419" y="183"/>
      <point x="382" y="96"/>
      <point x="314" y="47"/>
    </contour>
  </outline>
</glyph>
<glyph name="p" format="1">
  <advance width="551"/>
  <unicode hex="0070"/>
  <note>
    uni0070
  </note>
  <outline>
    <contour>
      <point x="85" y="484" type="line"/>
      <point x="85" y="-209" type="line"/>
      <point x="155" y="-209" type="line"/>
      <point x="155" y="-41" type="line"/>
      <point x="154" y="45" type="line"/>
      <point x="188" y="18"/>
      <point x="258" y="-12"/>
      <point x="291" y="-12" type="qcurve"/>
      <point x="347" y="-12"/>
      <point x="443" y="50"/>
      <point x="502" y="167"/>
      <point x="502" y="249" type="qcurve"/>
      <point x="502" y="324"/>
      <point x="459" y="435"/>
      <point x="373" y="496"/>
      <point x="310" y="496" type="qcurve"/>
      <point x="267" y="496"/>
      <point x="186" y="455"/>
      <point x="152" y="427" type="qcurve"/>
      <point x="150" y="427" type="line"/>
      <point x="143" y="484" type="line"/>
    </contour>
    <contour>
      <point x="281" y="48" type="qcurve"/>
      <point x="256" y="48"/>
      <point x="191" y="72"/>
      <point x="155" y="102" type="qcurve"/>
      <point x="155" y="366" type="line"/>
      <point x="194" y="401"/>
      <point x="262" y="437"/>
      <point x="294" y="437" type="qcurve"/>
      <point x="343" y="437"/>
      <point x="402" y="389"/>
      <point x="430" y="304"/>
      <point x="430" y="249" type="qcurve"/>
      <point x="430" y="187"/>
      <point x="391" y="97"/>
      <point x="324" y="48"/>
    </contour>
  </outline>
</glyph>
<glyph name="q" format="1">
  <advance width="551"/>
  <unicode hex="0071"/>
  <note>
    uni0071
  </note>
  <outline>
    <contour>
      <point x="396" y="-32" type="line"/>
      <point x="396" y="-209" type="line"/>
      <point x="466" y="-209" type="line"/>
      <point x="466" y="484" type="line"/>
      <point x="410" y="484" type="line"/>
      <point x="403" y="439" type="line"/>
      <point x="400" y="439" type="line"/>
      <point x="368" y="466"/>
      <point x="303" y="496"/>
      <point x="260" y="496" type="qcurve"/>
      <point x="204" y="496"/>
      <point x="108" y="434"/>
      <point x="49" y="320"/>
      <point x="49" y="241" type="qcurve"/>
      <point x="49" y="120"/>
      <point x="158" y="-12"/>
      <point x="249" y="-12" type="qcurve"/>
      <point x="293" y="-12"/>
      <point x="369" y="30"/>
      <point x="399" y="58" type="qcurve"/>
    </contour>
    <contour>
      <point x="263" y="48" type="qcurve"/>
      <point x="195" y="48"/>
      <point x="122" y="152"/>
      <point x="122" y="242" type="qcurve"/>
      <point x="122" y="299"/>
      <point x="162" y="387"/>
      <point x="229" y="437"/>
      <point x="271" y="437" type="qcurve"/>
      <point x="303" y="437"/>
      <point x="363" y="412"/>
      <point x="396" y="382" type="qcurve"/>
      <point x="396" y="118" type="line"/>
      <point x="364" y="83"/>
      <point x="299" y="48"/>
    </contour>
  </outline>
</glyph>
<glyph name="r" format="1">
  <advance width="338"/>
  <unicode hex="0072"/>
  <note>
    uni0072
  </note>
  <outline>
    <contour>
      <point x="85" y="484" type="line"/>
      <point x="85" y="0" type="line"/>
      <point x="155" y="0" type="line"/>
      <point x="155" y="317" type="line"/>
      <point x="181" y="381"/>
      <point x="250" y="432"/>
      <point x="281" y="432" type="qcurve"/>
      <point x="296" y="432"/>
      <point x="315" y="429"/>
      <point x="327" y="424" type="qcurve"/>
      <point x="340" y="486" type="line"/>
      <point x="329" y="492"/>
      <point x="305" y="496"/>
      <point x="290" y="496" type="qcurve"/>
      <point x="249" y="496"/>
      <point x="177" y="441"/>
      <point x="152" y="395" type="qcurve"/>
      <point x="150" y="395" type="line"/>
      <point x="143" y="484" type="line"/>
    </contour>
  </outline>
</glyph>
<glyph name="s" format="1">
  <advance width="415"/>
  <unicode hex="0073"/>
  <note>
    uni0073
  </note>
  <outline>
    <contour>
      <point x="209" y="-12" type="qcurve"/>
      <point x="265" y="-12"/>
      <point x="342" y="27"/>
      <point x="381" y="91"/>
      <point x="381" y="130" type="qcurve"/>
      <point x="381" y="176"/>
      <point x="336" y="230"/>
      <point x="266" y="263"/>
      <point x="231" y="277" type="qcurve"/>
      <point x="203" y="287"/>
      <point x="154" y="309"/>
      <point x="124" y="341"/>
      <point x="124" y="365" type="qcurve"/>
      <point x="124" y="395"/>
      <point x="171" y="441"/>
      <point x="220" y="441" type="qcurve"/>
      <point x="254" y="441"/>
      <point x="307" y="416"/>
      <point x="332" y="397" type="qcurve"/>
      <point x="366" y="443" type="line"/>
      <point x="339" y="465"/>
      <point x="263" y="496"/>
      <point x="220" y="496" type="qcurve"/>
      <point x="142" y="496"/>
      <point x="56" y="418"/>
      <point x="56" y="361" type="qcurve"/>
      <point x="56" y="320"/>
      <point x="99" y="268"/>
      <point x="165" y="235"/>
      <point x="200" y="222" type="qcurve"/>
      <point x="227" y="212"/>
      <point x="279" y="187"/>
      <point x="313" y="152"/>
      <point x="313" y="125" type="qcurve"/>
      <point x="313" y="92"/>
      <point x="262" y="44"/>
      <point x="212" y="44" type="qcurve"/>
      <point x="166" y="44"/>
      <point x="97" y="77"/>
      <point x="65" y="102" type="qcurve"/>
      <point x="29" y="55" type="line"/>
      <point x="63" y="27"/>
      <point x="157" y="-12"/>
    </contour>
  </outline>
</glyph>
<glyph name="t" format="1">
  <advance width="330"/>
  <unicode hex="0074"/>
  <note>
    uni0074
  </note>
  <outline>
    <contour>
      <point x="231" y="-12" type="qcurve"/>
      <point x="251" y="-12"/>
      <point x="297" y="-1"/>
      <point x="317" y="6" type="qcurve"/>
      <point x="303" y="60" type="line"/>
      <point x="291" y="55"/>
      <point x="259" y="46"/>
      <point x="246" y="46" type="qcurve"/>
      <point x="202" y="46"/>
      <point x="169" y="98"/>
      <point x="169" y="143" type="qcurve"/>
      <point x="169" y="426" type="line"/>
      <point x="303" y="426" type="line"/>
      <point x="303" y="484" type="line"/>
      <point x="169" y="484" type="line"/>
      <point x="169" y="621" type="line"/>
      <point x="110" y="621" type="line"/>
      <point x="101" y="484" type="line"/>
      <point x="25" y="480" type="line"/>
      <point x="25" y="426" type="line"/>
      <point x="99" y="426" type="line"/>
      <point x="99" y="145" type="line" smooth="yes"/>
      <point x="99" y="75"/>
      <point x="156" y="-12"/>
    </contour>
  </outline>
</glyph>
<glyph name="u" format="1">
  <advance width="539"/>
  <unicode hex="0075"/>
  <note>
    uni0075
  </note>
  <outline>
    <contour>
      <point x="226" y="-12" type="qcurve"/>
      <point x="276" y="-12"/>
      <point x="353" y="37"/>
      <point x="387" y="77" type="qcurve"/>
      <point x="390" y="77" type="line"/>
      <point x="396" y="0" type="line"/>
      <point x="454" y="0" type="line"/>
      <point x="454" y="484" type="line"/>
      <point x="384" y="484" type="line"/>
      <point x="384" y="136" type="line"/>
      <point x="347" y="91"/>
      <point x="285" y="49"/>
      <point x="246" y="49" type="qcurve"/>
      <point x="195" y="49"/>
      <point x="148" y="115"/>
      <point x="148" y="185" type="qcurve"/>
      <point x="148" y="484" type="line"/>
      <point x="78" y="484" type="line"/>
      <point x="78" y="176" type="line" smooth="yes"/>
      <point x="78" y="83"/>
      <point x="150" y="-12"/>
    </contour>
  </outline>
</glyph>
<glyph name="v" format="1">
  <advance width="456"/>
  <unicode hex="0076"/>
  <note>
    uni0076
  </note>
  <outline>
    <contour>
      <point x="12" y="484" type="line"/>
      <point x="189" y="0" type="line"/>
      <point x="271" y="0" type="line"/>
      <point x="444" y="484" type="line"/>
      <point x="375" y="484" type="line"/>
      <point x="278" y="200" type="line" smooth="yes"/>
      <point x="267" y="165"/>
      <point x="243" y="93"/>
      <point x="232" y="59" type="qcurve"/>
      <point x="228" y="59" type="line"/>
      <point x="217" y="93"/>
      <point x="193" y="165"/>
      <point x="182" y="200" type="qcurve"/>
      <point x="85" y="484" type="line"/>
    </contour>
  </outline>
</glyph>
<glyph name="w" format="1">
  <advance width="708"/>
  <unicode hex="0077"/>
  <note>
    uni0077
  </note>
  <outline>
    <contour>
      <point x="24" y="484" type="line"/>
      <point x="161" y="0" type="line"/>
      <point x="244" y="0" type="line"/>
      <point x="317" y="272" type="line" smooth="yes"/>
      <point x="327" y="307"/>
      <point x="343" y="376"/>
      <point x="351" y="412" type="qcurve"/>
      <point x="355" y="412" type="line"/>
      <point x="365" y="376"/>
      <point x="381" y="308"/>
      <point x="390" y="273" type="qcurve"/>
      <point x="464" y="0" type="line"/>
      <point x="551" y="0" type="line"/>
      <point x="684" y="484" type="line"/>
      <point x="616" y="484" type="line"/>
      <point x="541" y="194" type="line" smooth="yes"/>
      <point x="533" y="160"/>
      <point x="517" y="94"/>
      <point x="509" y="60" type="qcurve"/>
      <point x="505" y="60" type="line"/>
      <point x="497" y="94"/>
      <point x="480" y="160"/>
      <point x="471" y="194" type="qcurve"/>
      <point x="391" y="484" type="line"/>
      <point x="320" y="484" type="line"/>
      <point x="241" y="194" type="line" smooth="yes"/>
      <point x="232" y="160"/>
      <point x="215" y="94"/>
      <point x="207" y="60" type="qcurve"/>
      <point x="203" y="60" type="line"/>
      <point x="196" y="94"/>
      <point x="181" y="160"/>
      <point x="173" y="194" type="qcurve"/>
      <point x="96" y="484" type="line"/>
    </contour>
  </outline>
</glyph>
<glyph name="x" format="1">
  <advance width="434"/>
  <unicode hex="0078"/>
  <note>
    uni0078
  </note>
  <outline>
    <contour>
      <point x="174" y="253" type="line"/>
      <point x="14" y="0" type="line"/>
      <point x="87" y="0" type="line"/>
      <point x="158" y="119" type="line" smooth="yes"/>
      <point x="171" y="142"/>
      <point x="196" y="185"/>
      <point x="209" y="206" type="qcurve"/>
      <point x="213" y="206" type="line"/>
      <point x="227" y="185"/>
      <point x="255" y="141"/>
      <point x="268" y="119" type="qcurve"/>
      <point x="343" y="0" type="line"/>
      <point x="420" y="0" type="line"/>
      <point x="260" y="246" type="line"/>
      <point x="407" y="484" type="line"/>
      <point x="334" y="484" type="line"/>
      <point x="270" y="373" type="line" smooth="yes"/>
      <point x="259" y="353"/>
      <point x="236" y="313"/>
      <point x="224" y="292" type="qcurve"/>
      <point x="220" y="292" type="line"/>
      <point x="208" y="313"/>
      <point x="183" y="353"/>
      <point x="172" y="373" type="qcurve"/>
      <point x="103" y="484" type="line"/>
      <point x="26" y="484" type="line"/>
    </contour>
  </outline>
</glyph>
<glyph name="y" format="1">
  <advance width="457"/>
  <unicode hex="0079"/>
  <note>
    uni0079
  </note>
  <outline>
    <contour>
      <point x="85" y="-212" type="qcurve"/>
      <point x="132" y="-212"/>
      <point x="198" y="-168"/>
      <point x="244" y="-92"/>
      <point x="260" y="-47" type="qcurve"/>
      <point x="445" y="484" type="line"/>
      <point x="376" y="484" type="line"/>
      <point x="284" y="205" type="line"/>
      <point x="275" y="173"/>
      <point x="253" y="102"/>
      <point x="242" y="68" type="qcurve"/>
      <point x="238" y="68" type="line"/>
      <point x="226" y="102"/>
      <point x="201" y="174"/>
      <point x="189" y="205" type="qcurve"/>
      <point x="85" y="484" type="line"/>
      <point x="12" y="484" type="line"/>
      <point x="208" y="-4" type="line"/>
      <point x="196" y="-41" type="line" smooth="yes"/>
      <point x="180" y="-89"/>
      <point x="124" y="-153"/>
      <point x="82" y="-153" type="qcurve"/>
      <point x="73" y="-153"/>
      <point x="52" y="-148"/>
      <point x="44" y="-146" type="qcurve"/>
      <point x="30" y="-202" type="line"/>
      <point x="41" y="-206"/>
      <point x="69" y="-212"/>
    </contour>
  </outline>
</glyph>
<glyph name="z" format="1">
  <advance width="418"/>
  <unicode hex="007A"/>
  <note>
    uni007A
  </note>
  <outline>
    <contour>
      <point x="30" y="37" type="line"/>
      <point x="30" y="0" type="line"/>
      <point x="393" y="0" type="line"/>
      <point x="393" y="58" type="line"/>
      <point x="119" y="58" type="line"/>
      <point x="384" y="447" type="line"/>
      <point x="384" y="484" type="line"/>
      <point x="59" y="484" type="line"/>
      <point x="59" y="426" type="line"/>
      <point x="295" y="426" type="line"/>
    </contour>
  </outline>
</glyph>
<glyph name="pi" format="1">
  <advance width="622"/>
  <unicode hex="03C0"/>
  <outline>
    <contour>
      <point x="141" y="312" type="curve"/>
      <point x="140" y="250" type="line"/>
      <point x="369" y="250"/>
      <point x="539" y="375"/>
      <point x="494" y="715" type="curve"/>
      <point x="421" y="715" type="line"/>
      <point x="467" y="412"/>
      <point x="332" y="312"/>
    </contour>
    <contour>
      <point x="100" y="714" type="line"/>
      <point x="100" y="-148" type="line"/>
      <point x="170" y="-148" type="line"/>
      <point x="170" y="714" type="line"/>
    </contour>
  </outline>
</glyph>
<glyph name="pe" format="1">
  <advance width="551"/>
  <unicode hex="05E4"/>
  <outline>
    <contour>
      <point x="100" y="715" type="line"/>
      <point x="100" y="-148" type="line"/>
      <point x="170" y="-148" type="line"/>
      <point x="170" y="715" type="line"/>
    </contour>
    <contour>
      <point x="392" y="622" type="line"/>
      <point x="117" y="474" type="line"/>
      <point x="133" y="419" type="line"/>
      <point x="410" y="568" type="line"/>
    </contour>
    <contour>
      <point x="433" y="413" type="line"/>
      <point x="117" y="246" type="line"/>
      <point x="133" y="191" type="line"/>
      <point x="451" y="359" type="line"/>
    </contour>
  </outline>
</glyph>
<glyph name="a.001" format="1">
  <advance width="759"/>
  <outline>
    <contour>
      <point x="268" y="-12" type="curve"/>
      <point x="352" y="-12"/>
      <point x="423" y="34"/>
      <point x="441" y="96" type="curve"/>
      <point x="421" y="141" type="line"/>
      <point x="404" y="78"/>
      <point x="332" y="46"/>
      <point x="276" y="46" type="curve"/>
      <point x="183" y="46"/>
      <point x="115" y="123"/>
      <point x="115" y="240" type="curve"/>
      <point x="115" y="360"/>
      <point x="178" y="438"/>
      <point x="286" y="438" type="curve"/>
      <point x="347" y="438"/>
      <point x="383" y="416"/>
      <point x="418" y="381" type="curve"/>
      <point x="423" y="427" type="line"/>
      <point x="381" y="477"/>
      <point x="341" y="496"/>
      <point x="282" y="496" type="curve"/>
      <point x="143" y="496"/>
      <point x="45" y="383"/>
      <point x="45" y="242" type="curve"/>
      <point x="45" y="96"/>
      <point x="137" y="-12"/>
    </contour>
    <contour>
      <point x="399" y="657" type="line"/>
      <point x="399" y="100" type="line"/>
      <point x="399" y="35"/>
      <point x="455" y="-12"/>
      <point x="534" y="-12" type="curve"/>
      <point x="570" y="-12"/>
      <point x="600" y="-2"/>
      <point x="625" y="14" type="curve"/>
      <point x="658" y="38"/>
      <point x="680" y="78"/>
      <point x="690" y="130" type="curve"/>
      <point x="634" y="151" type="line"/>
      <point x="624" y="88"/>
      <point x="589" y="46"/>
      <point x="544" y="46" type="curve"/>
      <point x="502" y="46"/>
      <point x="469" y="70"/>
      <point x="469" y="143" type="curve"/>
      <point x="469" y="657" type="line"/>
    </contour>
  </outline>
</glyph>
<glyph name="ba" format="1">
  <advance width="774"/>
  <outline>
    <contour>
      <point x="168" y="475" type="line"/>
      <point x="100" y="475" type="line"/>
      <point x="100" y="259" type="line"/>
      <point x="100" y="81"/>
      <point x="207" y="-13"/>
      <point x="340" y="-13" type="curve"/>
      <point x="475" y="-13"/>
      <point x="572" y="81"/>
      <point x="572" y="259" type="curve"/>
      <point x="572" y="475" type="line"/>
      <point x="504" y="475" type="line"/>
      <point x="504" y="267" type="line"/>
      <point x="504" y="112"/>
      <point x="429" y="46"/>
      <point x="343" y="46" type="curve"/>
      <point x="254" y="46"/>
      <point x="168" y="121"/>
      <point x="168" y="267" type="curve"/>
    </contour>
    <contour>
      <point x="571" y="484" type="line"/>
      <point x="103" y="484" type="line"/>
      <point x="103" y="432" type="line"/>
      <point x="571" y="432" type="line"/>
    </contour>
    <contour>
      <point x="313" y="715" type="line"/>
      <point x="252" y="715" type="line"/>
      <point x="170" y="467" type="line"/>
      <point x="231" y="467" type="line"/>
    </contour>
    <contour>
      <point x="556" y="715" type="line"/>
      <point x="495" y="715" type="line"/>
      <point x="413" y="467" type="line"/>
      <point x="473" y="467" type="line"/>
    </contour>
  </outline>
</glyph>
<glyph name="bi" format="1">
  <advance width="1018"/>
  <outline>
    <contour>
      <point x="77" y="0" type="line"/>
      <point x="960" y="0" type="line"/>
      <point x="960" y="0" type="line"/>
      <point x="555" y="657" type="line"/>
      <point x="480" y="657" type="line"/>
    </contour>
    <contour>
      <point x="489" y="48" type="line"/>
      <point x="172" y="48" type="line"/>
      <point x="507" y="580" type="line"/>
      <point x="489" y="545" type="line"/>
    </contour>
    <contour>
      <point x="865" y="48" type="line"/>
      <point x="548" y="48" type="line"/>
      <point x="548" y="545" type="line"/>
      <point x="530" y="580" type="line"/>
    </contour>
  </outline>
</glyph>
<glyph name="de.alt" format="1">
  <advance width="774"/>
  <outline>
    <contour>
      <point x="164" y="657" type="line"/>
      <point x="94" y="657" type="line"/>
      <point x="94" y="274" type="line"/>
      <point x="94" y="69"/>
      <point x="202" y="-12"/>
      <point x="349" y="-12" type="curve"/>
      <point x="497" y="-12"/>
      <point x="603" y="69"/>
      <point x="603" y="274" type="curve"/>
      <point x="603" y="657" type="line"/>
      <point x="533" y="657" type="line"/>
      <point x="533" y="282" type="line"/>
      <point x="533" y="102"/>
      <point x="450" y="48"/>
      <point x="349" y="48" type="curve"/>
      <point x="245" y="48"/>
      <point x="164" y="112"/>
      <point x="164" y="282" type="curve"/>
    </contour>
    <contour>
      <point x="155" y="368" type="line"/>
      <point x="155" y="306" type="line"/>
      <point x="349" y="426" type="line"/>
      <point x="542" y="306" type="line"/>
      <point x="542" y="368" type="line"/>
      <point x="349" y="496" type="line"/>
    </contour>
  </outline>
</glyph>
<glyph name="de" format="1">
  <advance width="774"/>
  <outline>
    <contour>
      <point x="164" y="657" type="line"/>
      <point x="94" y="657" type="line"/>
      <point x="94" y="274" type="line"/>
      <point x="94" y="69"/>
      <point x="202" y="-12"/>
      <point x="349" y="-12" type="curve"/>
      <point x="497" y="-12"/>
      <point x="603" y="69"/>
      <point x="603" y="274" type="curve"/>
      <point x="603" y="657" type="line"/>
      <point x="533" y="657" type="line"/>
      <point x="533" y="282" type="line"/>
      <point x="533" y="102"/>
      <point x="450" y="44"/>
      <point x="349" y="44" type="curve"/>
      <point x="245" y="44"/>
      <point x="164" y="112"/>
      <point x="164" y="282" type="curve"/>
    </contour>
    <contour>
      <point x="349" y="329" type="line"/>
      <point x="155" y="449" type="line"/>
      <point x="155" y="387" type="line"/>
      <point x="349" y="259" type="line"/>
      <point x="542" y="387" type="line"/>
      <point x="542" y="449" type="line"/>
    </contour>
  </outline>
</glyph>
<glyph name="di" format="1">
  <advance width="600"/>
  <outline>
    <contour>
      <point x="180" y="400" type="curve"/>
      <point x="180" y="357" type="line"/>
      <point x="373" y="357"/>
      <point x="518" y="405"/>
      <point x="476" y="715" type="curve"/>
      <point x="406" y="715" type="line"/>
      <point x="447" y="439"/>
      <point x="339" y="400"/>
    </contour>
    <contour>
      <point x="339" y="-160" type="curve"/>
      <point x="457" y="-160"/>
      <point x="522" y="-82"/>
      <point x="522" y="4" type="curve"/>
      <point x="457" y="18" type="line"/>
      <point x="457" y="-49"/>
      <point x="412" y="-102"/>
      <point x="344" y="-102" type="curve"/>
      <point x="269" y="-102"/>
      <point x="231" y="-52"/>
      <point x="231" y="44" type="curve"/>
      <point x="231" y="715" type="line"/>
      <point x="161" y="715" type="line"/>
      <point x="161" y="21" type="line"/>
      <point x="161" y="-100"/>
      <point x="242" y="-160"/>
    </contour>
  </outline>
</glyph>
<glyph name="do.alt1" format="1">
  <advance width="1025"/>
  <outline>
    <contour>
      <point x="100" y="484" type="line"/>
      <point x="100" y="0" type="line"/>
      <point x="197" y="0" type="line"/>
      <point x="326" y="438" type="line"/>
      <point x="295" y="438" type="line"/>
      <point x="400" y="69" type="line"/>
      <point x="488" y="69" type="line"/>
      <point x="589" y="437" type="line"/>
      <point x="554" y="437" type="line"/>
      <point x="663" y="70" type="line"/>
      <point x="745" y="70" type="line"/>
      <point x="841" y="434" type="line"/>
      <point x="814" y="434" type="line"/>
      <point x="900" y="70" type="line"/>
      <point x="959" y="70" type="line"/>
      <point x="866" y="444" type="line"/>
      <point x="783" y="444" type="line"/>
      <point x="694" y="103" type="line"/>
      <point x="714" y="103" type="line"/>
      <point x="613" y="444" type="line"/>
      <point x="528" y="444" type="line"/>
      <point x="434" y="97" type="line"/>
      <point x="454" y="97" type="line"/>
      <point x="357" y="444" type="line"/>
      <point x="264" y="444" type="line"/>
      <point x="181" y="147" type="line"/>
      <point x="167" y="16" type="line"/>
      <point x="170" y="16" type="line"/>
      <point x="170" y="484" type="line"/>
    </contour>
  </outline>
</glyph>
<glyph name="do.alt2" format="1">
  <advance width="954"/>
  <outline>
    <contour>
      <point x="436" y="115" type="curve"/>
      <point x="436" y="363" type="line"/>
      <point x="436" y="417"/>
      <point x="417" y="442"/>
      <point x="387" y="442" type="curve"/>
      <point x="359" y="442"/>
      <point x="337" y="417"/>
      <point x="337" y="363" type="curve"/>
      <point x="337" y="115" type="line"/>
      <point x="337" y="41"/>
      <point x="281" y="-12"/>
      <point x="223" y="-12" type="curve"/>
      <point x="133" y="-12"/>
      <point x="100" y="41"/>
      <point x="100" y="115" type="curve"/>
      <point x="100" y="327" type="line"/>
      <point x="167" y="327" type="line"/>
      <point x="167" y="121" type="line"/>
      <point x="167" y="67"/>
      <point x="187" y="42"/>
      <point x="223" y="42" type="curve"/>
      <point x="249" y="42"/>
      <point x="270" y="67"/>
      <point x="270" y="121" type="curve"/>
      <point x="270" y="369" type="line"/>
      <point x="270" y="452"/>
      <point x="319" y="496"/>
      <point x="387" y="496" type="curve"/>
      <point x="463" y="496"/>
      <point x="503" y="443"/>
      <point x="503" y="369" type="curve"/>
      <point x="503" y="121" type="line"/>
      <point x="503" y="67"/>
      <point x="526" y="42"/>
      <point x="557" y="42" type="curve"/>
      <point x="583" y="42"/>
      <point x="602" y="67"/>
      <point x="602" y="121" type="curve"/>
      <point x="602" y="369" type="line"/>
      <point x="602" y="455"/>
      <point x="658" y="496"/>
      <point x="716" y="496" type="curve"/>
      <point x="803" y="496"/>
      <point x="839" y="443"/>
      <point x="839" y="369" type="curve"/>
      <point x="839" y="113" type="line"/>
      <point x="772" y="113" type="line"/>
      <point x="772" y="363" type="line"/>
      <point x="772" y="417"/>
      <point x="752" y="432"/>
      <point x="716" y="432" type="curve"/>
      <point x="690" y="432"/>
      <point x="669" y="417"/>
      <point x="669" y="363" type="curve"/>
      <point x="669" y="115" type="line"/>
      <point x="669" y="32"/>
      <point x="620" y="-12"/>
      <point x="552" y="-12" type="curve"/>
      <point x="476" y="-12"/>
      <point x="436" y="41"/>
    </contour>
  </outline>
</glyph>
<glyph name="do.alt3" format="1">
  <advance width="1080"/>
  <outline>
    <contour>
      <point x="980" y="314" type="line"/>
      <point x="907" y="314" type="line"/>
      <point x="907" y="211" type="line"/>
      <point x="907" y="157"/>
      <point x="885" y="142"/>
      <point x="869" y="142" type="curve"/>
      <point x="843" y="142"/>
      <point x="824" y="157"/>
      <point x="824" y="211" type="curve"/>
      <point x="824" y="257" type="line"/>
      <point x="824" y="331"/>
      <point x="788" y="384"/>
      <point x="708" y="384" type="curve"/>
      <point x="650" y="384"/>
      <point x="591" y="343"/>
      <point x="591" y="257" type="curve"/>
      <point x="591" y="181" type="line"/>
      <point x="591" y="127"/>
      <point x="572" y="102"/>
      <point x="546" y="102" type="curve"/>
      <point x="515" y="102"/>
      <point x="492" y="127"/>
      <point x="492" y="181" type="curve"/>
      <point x="492" y="299" type="line"/>
      <point x="492" y="373"/>
      <point x="449" y="426"/>
      <point x="373" y="426" type="curve"/>
      <point x="305" y="426"/>
      <point x="253" y="382"/>
      <point x="253" y="299" type="curve"/>
      <point x="253" y="115" type="line"/>
      <point x="253" y="61"/>
      <point x="241" y="42"/>
      <point x="213" y="42" type="curve"/>
      <point x="184" y="42"/>
      <point x="170" y="61"/>
      <point x="170" y="115" type="curve"/>
      <point x="170" y="484" type="line"/>
      <point x="100" y="484" type="line"/>
      <point x="100" y="115" type="line"/>
      <point x="100" y="41"/>
      <point x="126" y="-12"/>
      <point x="216" y="-12" type="curve"/>
      <point x="287" y="-12"/>
      <point x="323" y="41"/>
      <point x="323" y="115" type="curve"/>
      <point x="323" y="293" type="line"/>
      <point x="323" y="347"/>
      <point x="345" y="372"/>
      <point x="373" y="372" type="curve"/>
      <point x="403" y="372"/>
      <point x="422" y="347"/>
      <point x="422" y="293" type="curve"/>
      <point x="422" y="175" type="line"/>
      <point x="422" y="101"/>
      <point x="465" y="48"/>
      <point x="541" y="48" type="curve"/>
      <point x="609" y="48"/>
      <point x="661" y="92"/>
      <point x="661" y="175" type="curve"/>
      <point x="661" y="251" type="line"/>
      <point x="661" y="305"/>
      <point x="682" y="320"/>
      <point x="708" y="320" type="curve"/>
      <point x="734" y="320"/>
      <point x="754" y="305"/>
      <point x="754" y="251" type="curve"/>
      <point x="754" y="205" type="line" smooth="yes"/>
      <point x="754" y="131"/>
      <point x="798" y="78"/>
      <point x="870" y="78" type="curve"/>
      <point x="932" y="78"/>
      <point x="980" y="123"/>
      <point x="980" y="205" type="curve"/>
    </contour>
  </outline>
</glyph>
<glyph name="do.alt4" format="1">
  <advance width="1116"/>
  <outline>
    <contour>
      <point x="935" y="280" type="line"/>
      <point x="1002" y="281" type="line"/>
      <point x="989" y="187" type="line" smooth="yes"/>
      <point x="973" y="72"/>
      <point x="924" y="45"/>
      <point x="886" y="45" type="curve"/>
      <point x="837" y="45"/>
      <point x="800" y="83"/>
      <point x="781" y="181" type="curve"/>
      <point x="768" y="249" type="line" smooth="yes"/>
      <point x="752" y="332"/>
      <point x="738" y="343"/>
      <point x="724" y="343" type="curve"/>
      <point x="705" y="343"/>
      <point x="693" y="321"/>
      <point x="682" y="242" type="curve"/>
      <point x="669" y="169" type="line" smooth="yes"/>
      <point x="648" y="52"/>
      <point x="615" y="35"/>
      <point x="569" y="35" type="curve"/>
      <point x="516" y="35"/>
      <point x="478" y="70"/>
      <point x="461" y="158" type="curve"/>
      <point x="431" y="303" type="line" smooth="yes"/>
      <point x="423" y="340"/>
      <point x="417" y="374"/>
      <point x="395" y="374" type="curve"/>
      <point x="381" y="374"/>
      <point x="372" y="361"/>
      <point x="361" y="302" type="curve"/>
      <point x="350" y="245"/>
      <point x="332" y="154"/>
      <point x="326" y="125" type="curve"/>
      <point x="303" y="13"/>
      <point x="268" y="-12"/>
      <point x="224" y="-12" type="curve"/>
      <point x="161" y="-12"/>
      <point x="129" y="36"/>
      <point x="118" y="189" type="curve"/>
      <point x="100" y="484" type="line"/>
      <point x="168" y="484" type="line"/>
      <point x="189" y="148" type="line"/>
      <point x="195" y="72"/>
      <point x="205" y="45"/>
      <point x="219" y="45" type="curve"/>
      <point x="231" y="45"/>
      <point x="245" y="57"/>
      <point x="257" y="114" type="curve"/>
      <point x="291" y="284" type="line" smooth="yes"/>
      <point x="315" y="405"/>
      <point x="346" y="431"/>
      <point x="397" y="431" type="curve"/>
      <point x="445" y="431"/>
      <point x="472" y="408"/>
      <point x="493" y="316" type="curve"/>
      <point x="517" y="206" type="line" smooth="yes"/>
      <point x="538" y="109"/>
      <point x="553" y="93"/>
      <point x="569" y="93" type="curve"/>
      <point x="579" y="93"/>
      <point x="595" y="105"/>
      <point x="606" y="172" type="curve"/>
      <point x="619" y="249" type="line"/>
      <point x="634" y="359"/>
      <point x="670" y="396"/>
      <point x="725" y="396" type="curve"/>
      <point x="778" y="396"/>
      <point x="807" y="361"/>
      <point x="821" y="302" type="curve"/>
      <point x="849" y="164" type="line" smooth="yes"/>
      <point x="858" y="119"/>
      <point x="869" y="101"/>
      <point x="886" y="101" type="curve"/>
      <point x="898" y="101"/>
      <point x="909" y="115"/>
      <point x="920" y="175" type="curve"/>
    </contour>
  </outline>
</glyph>
<glyph name="do.alt5" format="1">
  <advance width="1202"/>
  <outline>
    <contour>
      <point x="1056" y="349" type="line"/>
      <point x="987" y="349" type="line"/>
      <point x="953" y="114" type="line"/>
      <point x="945" y="67"/>
      <point x="940" y="46"/>
      <point x="920" y="46" type="curve"/>
      <point x="904" y="46"/>
      <point x="892" y="62"/>
      <point x="876" y="159" type="curve"/>
      <point x="843" y="361" type="line"/>
      <point x="831" y="453"/>
      <point x="794" y="496"/>
      <point x="740" y="496" type="curve"/>
      <point x="689" y="496"/>
      <point x="654" y="471"/>
      <point x="636" y="349" type="curve"/>
      <point x="602" y="114" type="line"/>
      <point x="594" y="67"/>
      <point x="589" y="46"/>
      <point x="569" y="46" type="curve"/>
      <point x="552" y="46"/>
      <point x="538" y="61"/>
      <point x="525" y="159" type="curve"/>
      <point x="498" y="361" type="line"/>
      <point x="486" y="453"/>
      <point x="452" y="496"/>
      <point x="398" y="496" type="curve"/>
      <point x="347" y="496"/>
      <point x="309" y="471"/>
      <point x="291" y="349" type="curve"/>
      <point x="257" y="114" type="line"/>
      <point x="245" y="57"/>
      <point x="231" y="45"/>
      <point x="219" y="45" type="curve"/>
      <point x="205" y="45"/>
      <point x="195" y="72"/>
      <point x="189" y="148" type="curve"/>
      <point x="168" y="484" type="line"/>
      <point x="100" y="484" type="line"/>
      <point x="118" y="189" type="line"/>
      <point x="129" y="36"/>
      <point x="161" y="-12"/>
      <point x="224" y="-12" type="curve"/>
      <point x="268" y="-12"/>
      <point x="303" y="13"/>
      <point x="326" y="125" type="curve"/>
      <point x="332" y="154"/>
      <point x="350" y="299"/>
      <point x="361" y="367" type="curve"/>
      <point x="367" y="405"/>
      <point x="374" y="439"/>
      <point x="396" y="439" type="curve"/>
      <point x="418" y="439"/>
      <point x="427" y="405"/>
      <point x="431" y="368" type="curve"/>
      <point x="461" y="111" type="line"/>
      <point x="478" y="23"/>
      <point x="516" y="-12"/>
      <point x="569" y="-12" type="curve"/>
      <point x="613" y="-12"/>
      <point x="648" y="13"/>
      <point x="671" y="125" type="curve"/>
      <point x="677" y="154"/>
      <point x="695" y="299"/>
      <point x="706" y="367" type="curve"/>
      <point x="712" y="405"/>
      <point x="719" y="439"/>
      <point x="741" y="439" type="curve"/>
      <point x="763" y="439"/>
      <point x="771" y="405"/>
      <point x="776" y="368" type="curve"/>
      <point x="812" y="111" type="line"/>
      <point x="829" y="23"/>
      <point x="867" y="-12"/>
      <point x="920" y="-12" type="curve"/>
      <point x="963" y="-12"/>
      <point x="999" y="13"/>
      <point x="1010" y="72" type="curve"/>
    </contour>
  </outline>
</glyph>
<glyph name="do" format="1">
  <advance width="1036"/>
  <outline>
    <contour>
      <point x="100" y="484" type="line"/>
      <point x="100" y="0" type="line"/>
      <point x="207" y="0" type="line"/>
      <point x="293" y="261" type="line"/>
      <point x="316" y="378" type="line"/>
      <point x="305" y="378" type="line"/>
      <point x="330" y="258" type="line"/>
      <point x="390" y="80" type="line"/>
      <point x="393" y="80" type="line"/>
      <point x="403" y="79" type="line"/>
      <point x="460" y="79" type="line"/>
      <point x="518" y="236" type="line"/>
      <point x="542" y="353" type="line"/>
      <point x="525" y="353" type="line"/>
      <point x="557" y="239" type="line"/>
      <point x="621" y="96" type="line"/>
      <point x="624" y="96" type="line"/>
      <point x="624" y="95" type="line"/>
      <point x="681" y="95" type="line"/>
      <point x="772" y="315" type="line"/>
      <point x="759" y="315" type="line"/>
      <point x="840" y="123" type="line"/>
      <point x="905" y="123" type="line"/>
      <point x="806" y="349" type="line"/>
      <point x="723" y="349" type="line"/>
      <point x="667" y="207" type="line"/>
      <point x="647" y="128" type="line"/>
      <point x="657" y="128" type="line"/>
      <point x="637" y="210" type="line"/>
      <point x="566" y="373" type="line"/>
      <point x="503" y="373" type="line"/>
      <point x="441" y="219" type="line"/>
      <point x="422" y="107" type="line"/>
      <point x="432" y="107" type="line"/>
      <point x="408" y="218" type="line"/>
      <point x="347" y="404" type="line"/>
      <point x="274" y="404" type="line"/>
      <point x="187" y="147" type="line"/>
      <point x="167" y="16" type="line"/>
      <point x="170" y="16" type="line"/>
      <point x="170" y="484" type="line"/>
    </contour>
  </outline>
</glyph>
<glyph name="e.001" format="1">
  <advance width="775"/>
  <outline>
    <contour>
      <point x="350" y="340" type="curve"/>
      <point x="456" y="340"/>
      <point x="535" y="414"/>
      <point x="552" y="630" type="curve"/>
      <point x="533" y="650" type="line"/>
      <point x="495" y="464"/>
      <point x="428" y="406"/>
      <point x="351" y="406" type="curve"/>
      <point x="274" y="406"/>
      <point x="206" y="457"/>
      <point x="164" y="650" type="curve"/>
      <point x="145" y="630" type="line"/>
      <point x="162" y="414"/>
      <point x="244" y="340"/>
    </contour>
    <contour>
      <point x="94" y="657" type="line"/>
      <point x="94" y="0" type="line"/>
      <point x="164" y="0" type="line"/>
      <point x="164" y="657" type="line"/>
    </contour>
    <contour>
      <point x="533" y="657" type="line"/>
      <point x="533" y="0" type="line"/>
      <point x="603" y="0" type="line"/>
      <point x="603" y="657" type="line"/>
    </contour>
  </outline>
</glyph>
<glyph name="fa" format="1">
  <advance width="1031"/>
  <outline>
    <contour>
      <point x="224" y="570" type="line"/>
      <point x="40" y="169" type="line"/>
      <point x="107" y="169" type="line"/>
      <point x="265" y="517" type="line"/>
      <point x="267" y="517" type="line"/>
      <point x="372" y="280" type="line"/>
      <point x="594" y="280" type="line"/>
      <point x="698" y="517" type="line"/>
      <point x="698" y="517" type="line"/>
      <point x="854" y="184" type="line"/>
      <point x="921" y="184" type="line"/>
      <point x="738" y="569" type="line"/>
      <point x="661" y="570" type="line"/>
      <point x="554" y="330" type="line"/>
      <point x="414" y="330" type="line"/>
      <point x="304" y="570" type="line"/>
    </contour>
    <contour>
      <point x="991" y="190" type="line"/>
      <point x="780" y="190" type="line"/>
      <point x="780" y="140" type="line"/>
      <point x="991" y="140" type="line"/>
    </contour>
  </outline>
</glyph>
<glyph name="fo" format="1">
  <advance width="983"/>
  <outline>
    <contour>
      <point x="150" y="484" type="line"/>
      <point x="80" y="484" type="line"/>
      <point x="80" y="0" type="line"/>
      <point x="150" y="0" type="line"/>
    </contour>
    <contour>
      <point x="402" y="484" type="line"/>
      <point x="331" y="484" type="line"/>
      <point x="331" y="0" type="line"/>
      <point x="402" y="0" type="line"/>
    </contour>
    <contour>
      <point x="650" y="484" type="line"/>
      <point x="584" y="484" type="line"/>
      <point x="584" y="0" type="line"/>
      <point x="650" y="0" type="line"/>
    </contour>
    <contour>
      <point x="903" y="484" type="line"/>
      <point x="833" y="484" type="line"/>
      <point x="833" y="0" type="line"/>
      <point x="903" y="0" type="line"/>
    </contour>
    <contour>
      <point x="903" y="58" type="line"/>
      <point x="82" y="58" type="line"/>
      <point x="82" y="0" type="line"/>
      <point x="903" y="0" type="line"/>
    </contour>
  </outline>
</glyph>
<glyph name="ga" format="1">
  <advance width="560"/>
  <outline>
    <contour>
      <point x="150" y="-160" type="curve"/>
      <point x="240" y="-160"/>
      <point x="289" y="-95"/>
      <point x="289" y="-12" type="curve"/>
      <point x="289" y="408" type="line"/>
      <point x="227" y="408" type="line"/>
      <point x="227" y="-10" type="line"/>
      <point x="227" y="-79"/>
      <point x="194" y="-104"/>
      <point x="154" y="-104" type="curve"/>
      <point x="110" y="-104"/>
      <point x="85" y="-75"/>
      <point x="85" y="-10" type="curve"/>
      <point x="28" y="-30" type="line"/>
      <point x="28" y="-114"/>
      <point x="95" y="-160"/>
    </contour>
    <contour>
      <point x="257" y="369" type="curve"/>
      <point x="352" y="369"/>
      <point x="435" y="437"/>
      <point x="435" y="545" type="curve"/>
      <point x="435" y="648"/>
      <point x="360" y="726"/>
      <point x="258" y="726" type="curve"/>
      <point x="157" y="726"/>
      <point x="80" y="649"/>
      <point x="80" y="545" type="curve"/>
      <point x="80" y="438"/>
      <point x="160" y="369"/>
    </contour>
    <contour>
      <point x="258" y="417" type="curve"/>
      <point x="190" y="417"/>
      <point x="145" y="471"/>
      <point x="145" y="541" type="curve"/>
      <point x="145" y="613"/>
      <point x="188" y="668"/>
      <point x="258" y="668" type="curve"/>
      <point x="328" y="668"/>
      <point x="370" y="613"/>
      <point x="370" y="541" type="curve"/>
      <point x="370" y="471"/>
      <point x="323" y="417"/>
    </contour>
  </outline>
</glyph>
<glyph name="gi" format="1">
  <advance width="962"/>
  <outline>
    <contour>
      <point x="170" y="715" type="curve"/>
      <point x="100" y="715" type="line"/>
      <point x="100" y="600"/>
      <point x="100" y="452"/>
      <point x="100" y="260" type="curve"/>
      <point x="100" y="81"/>
      <point x="204" y="-13"/>
      <point x="338" y="-13" type="curve"/>
      <point x="472" y="-13"/>
      <point x="568" y="81"/>
      <point x="568" y="260" type="curve"/>
      <point x="568" y="448"/>
      <point x="571" y="605"/>
      <point x="571" y="715" type="curve"/>
      <point x="501" y="715" type="line"/>
      <point x="501" y="616"/>
      <point x="503" y="454"/>
      <point x="503" y="267" type="curve"/>
      <point x="503" y="112"/>
      <point x="436" y="46"/>
      <point x="340" y="46" type="curve"/>
      <point x="241" y="46"/>
      <point x="166" y="121"/>
      <point x="166" y="267" type="curve"/>
      <point x="166" y="457"/>
      <point x="168" y="603"/>
    </contour>
    <contour>
      <point x="550" y="470" type="curve"/>
      <point x="550" y="417" type="line"/>
      <point x="638" y="417"/>
      <point x="736" y="467"/>
      <point x="736" y="572" type="curve"/>
      <point x="736" y="657"/>
      <point x="660" y="715"/>
      <point x="566" y="715" type="curve"/>
      <point x="566" y="663" type="line"/>
      <point x="646" y="663"/>
      <point x="672" y="624"/>
      <point x="672" y="568" type="curve"/>
      <point x="672" y="500"/>
      <point x="622" y="470"/>
    </contour>
    <contour>
      <point x="145" y="470" type="curve"/>
      <point x="145" y="417" type="line"/>
      <point x="233" y="417"/>
      <point x="331" y="467"/>
      <point x="331" y="572" type="curve"/>
      <point x="331" y="657"/>
      <point x="255" y="715"/>
      <point x="161" y="715" type="curve"/>
      <point x="161" y="663" type="line"/>
      <point x="241" y="663"/>
      <point x="267" y="624"/>
      <point x="267" y="568" type="curve"/>
      <point x="267" y="500"/>
      <point x="218" y="470"/>
    </contour>
  </outline>
</glyph>
<glyph name="go.alt" format="1">
  <advance width="1024"/>
  <outline>
    <contour>
      <point x="100" y="237" type="curve"/>
      <point x="100" y="0" type="line"/>
      <point x="168" y="0" type="line"/>
      <point x="168" y="212" type="line" smooth="yes"/>
      <point x="168" y="343"/>
      <point x="217" y="411"/>
      <point x="305" y="411" type="curve"/>
      <point x="390" y="411"/>
      <point x="432" y="347"/>
      <point x="432" y="213" type="curve"/>
      <point x="432" y="81"/>
      <point x="505" y="-12"/>
      <point x="631" y="-12" type="curve"/>
      <point x="753" y="-12"/>
      <point x="847" y="59"/>
      <point x="847" y="239" type="curve"/>
      <point x="847" y="484" type="line"/>
      <point x="779" y="484" type="line"/>
      <point x="779" y="246" type="line" smooth="yes"/>
      <point x="779" y="97"/>
      <point x="727" y="39"/>
      <point x="644" y="39" type="curve"/>
      <point x="555" y="39"/>
      <point x="499" y="101"/>
      <point x="499" y="253" type="curve"/>
      <point x="499" y="401"/>
      <point x="422" y="463"/>
      <point x="310" y="463" type="curve"/>
      <point x="177" y="463"/>
      <point x="100" y="365"/>
    </contour>
    <contour>
      <point x="343" y="715" type="line"/>
      <point x="277" y="715" type="line"/>
      <point x="277" y="419" type="line"/>
      <point x="343" y="419" type="line"/>
    </contour>
  </outline>
</glyph>
<glyph name="go" format="1">
  <advance width="1026"/>
  <outline>
    <contour>
      <point x="655" y="-160" type="curve"/>
      <point x="755" y="-160"/>
      <point x="863" y="-104"/>
      <point x="863" y="85" type="curve"/>
      <point x="863" y="485" type="line"/>
      <point x="794" y="485" type="line"/>
      <point x="797" y="108" type="line" smooth="yes"/>
      <point x="798" y="-31"/>
      <point x="752" y="-95"/>
      <point x="655" y="-95" type="curve"/>
      <point x="561" y="-95"/>
      <point x="514" y="-16"/>
      <point x="514" y="80" type="curve"/>
      <point x="518" y="715" type="line"/>
      <point x="449" y="715" type="line"/>
      <point x="449" y="77" type="line" smooth="yes"/>
      <point x="449" y="-103"/>
      <point x="567" y="-160"/>
    </contour>
    <contour>
      <point x="102" y="244" type="curve"/>
      <point x="102" y="11" type="line"/>
      <point x="171" y="11" type="line"/>
      <point x="168" y="211" type="line" smooth="yes"/>
      <point x="166" y="371"/>
      <point x="190" y="431"/>
      <point x="292" y="431" type="curve"/>
      <point x="373" y="431"/>
      <point x="432" y="361"/>
      <point x="465" y="216" type="curve"/>
      <point x="480" y="302" type="line"/>
      <point x="417" y="470"/>
      <point x="356" y="497"/>
      <point x="283" y="497" type="curve"/>
      <point x="179" y="497"/>
      <point x="102" y="432"/>
    </contour>
  </outline>
</glyph>
<glyph name="ju" format="1">
  <advance width="855"/>
  <outline>
    <contour>
      <point x="399" y="652" type="line"/>
      <point x="329" y="652" type="line"/>
      <point x="329" y="-148" type="line"/>
      <point x="399" y="-148" type="line"/>
    </contour>
    <contour>
      <point x="365" y="620" type="curve"/>
      <point x="506" y="620"/>
      <point x="610" y="539"/>
      <point x="610" y="309" type="curve"/>
      <point x="668" y="309" type="line"/>
      <point x="668" y="576"/>
      <point x="537" y="669"/>
      <point x="364" y="669" type="curve"/>
      <point x="191" y="669"/>
      <point x="60" y="576"/>
      <point x="60" y="309" type="curve"/>
      <point x="119" y="309" type="line"/>
      <point x="119" y="539"/>
      <point x="226" y="620"/>
    </contour>
  </outline>
</glyph>
<glyph name="ka" format="1">
  <advance width="1102"/>
  <outline>
    <contour>
      <point x="163" y="501" type="curve"/>
      <point x="163" y="564"/>
      <point x="206" y="615"/>
      <point x="267" y="614" type="curve"/>
      <point x="330" y="613"/>
      <point x="365" y="564"/>
      <point x="365" y="502" type="curve"/>
      <point x="365" y="438"/>
      <point x="329" y="391"/>
      <point x="268" y="391" type="curve"/>
      <point x="218" y="391"/>
      <point x="163" y="425"/>
    </contour>
    <contour>
      <point x="532" y="269" type="line"/>
      <point x="462" y="269" type="line"/>
      <point x="462" y="-148" type="line"/>
      <point x="532" y="-148" type="line"/>
    </contour>
    <contour>
      <point x="646" y="-87" type="line"/>
      <point x="345" y="-87" type="line"/>
      <point x="345" y="-148" type="line"/>
      <point x="646" y="-148" type="line"/>
    </contour>
    <contour>
      <point x="496" y="240" type="curve"/>
      <point x="728" y="240"/>
      <point x="893" y="345"/>
      <point x="893" y="493" type="curve"/>
      <point x="893" y="591"/>
      <point x="824" y="667"/>
      <point x="726" y="667" type="curve"/>
      <point x="633" y="667"/>
      <point x="566" y="593"/>
      <point x="566" y="503" type="curve"/>
      <point x="566" y="408"/>
      <point x="643" y="345"/>
      <point x="733" y="349" type="curve"/>
      <point x="736" y="340" type="line"/>
      <point x="691" y="310"/>
      <point x="596" y="286"/>
      <point x="496" y="286" type="curve"/>
      <point x="396" y="286"/>
      <point x="302" y="310"/>
      <point x="257" y="340" type="curve"/>
      <point x="260" y="349" type="line"/>
      <point x="350" y="345"/>
      <point x="427" y="408"/>
      <point x="427" y="503" type="curve"/>
      <point x="427" y="593"/>
      <point x="360" y="667"/>
      <point x="267" y="667" type="curve"/>
      <point x="169" y="667"/>
      <point x="100" y="591"/>
      <point x="100" y="493" type="curve"/>
      <point x="100" y="345"/>
      <point x="265" y="240"/>
    </contour>
    <contour>
      <point x="830" y="501" type="curve"/>
      <point x="830" y="425"/>
      <point x="775" y="391"/>
      <point x="725" y="391" type="curve"/>
      <point x="664" y="391"/>
      <point x="628" y="438"/>
      <point x="628" y="502" type="curve"/>
      <point x="628" y="564"/>
      <point x="663" y="613"/>
      <point x="726" y="614" type="curve"/>
      <point x="787" y="615"/>
      <point x="830" y="564"/>
    </contour>
  </outline>
</glyph>
<glyph name="ki" format="1">
  <advance width="570"/>
  <outline>
    <contour>
      <point x="286" y="390" type="line"/>
      <point x="218" y="390" type="line"/>
      <point x="218" y="153" type="line"/>
      <point x="286" y="153" type="line"/>
    </contour>
    <contour>
      <point x="251" y="369" type="curve"/>
      <point x="346" y="369"/>
      <point x="429" y="437"/>
      <point x="429" y="545" type="curve"/>
      <point x="429" y="648"/>
      <point x="354" y="726"/>
      <point x="252" y="726" type="curve"/>
      <point x="151" y="726"/>
      <point x="74" y="649"/>
      <point x="74" y="545" type="curve"/>
      <point x="74" y="438"/>
      <point x="154" y="369"/>
    </contour>
    <contour>
      <point x="252" y="417" type="curve"/>
      <point x="184" y="417"/>
      <point x="139" y="471"/>
      <point x="139" y="541" type="curve"/>
      <point x="139" y="613"/>
      <point x="182" y="668"/>
      <point x="252" y="668" type="curve"/>
      <point x="322" y="668"/>
      <point x="364" y="613"/>
      <point x="364" y="541" type="curve"/>
      <point x="364" y="471"/>
      <point x="317" y="417"/>
    </contour>
    <contour>
      <point x="251" y="-160" type="curve"/>
      <point x="346" y="-160"/>
      <point x="429" y="-88"/>
      <point x="429" y="18" type="curve"/>
      <point x="429" y="120"/>
      <point x="354" y="197"/>
      <point x="252" y="197" type="curve"/>
      <point x="151" y="197"/>
      <point x="74" y="121"/>
      <point x="74" y="18" type="curve"/>
      <point x="74" y="-88"/>
      <point x="154" y="-160"/>
    </contour>
    <contour>
      <point x="252" y="-105" type="curve"/>
      <point x="184" y="-105"/>
      <point x="139" y="-51"/>
      <point x="139" y="21" type="curve"/>
      <point x="139" y="97"/>
      <point x="182" y="149"/>
      <point x="252" y="149" type="curve"/>
      <point x="322" y="149"/>
      <point x="364" y="97"/>
      <point x="364" y="21" type="curve"/>
      <point x="364" y="-51"/>
      <point x="317" y="-105"/>
    </contour>
  </outline>
</glyph>
<glyph name="la" format="1">
  <advance width="519"/>
  <outline>
    <contour>
      <point x="120" y="0" type="line"/>
      <point x="120" y="484" type="line"/>
      <point x="50" y="484" type="line"/>
      <point x="50" y="0" type="line"/>
    </contour>
    <contour>
      <point x="440" y="290" type="line"/>
      <point x="87" y="290" type="line"/>
      <point x="87" y="229" type="line"/>
      <point x="440" y="229" type="line"/>
    </contour>
  </outline>
</glyph>
<glyph name="li" format="1">
  <advance width="766"/>
  <outline>
    <contour>
      <point x="336" y="354" type="curve"/>
      <point x="336" y="424"/>
      <point x="268" y="499"/>
      <point x="184" y="499" type="curve"/>
      <point x="143" y="499"/>
      <point x="109" y="488"/>
      <point x="82" y="471" type="curve"/>
      <point x="93" y="411" type="line"/>
      <point x="112" y="424"/>
      <point x="146" y="437"/>
      <point x="185" y="437" type="curve"/>
      <point x="257" y="437"/>
      <point x="301" y="374"/>
      <point x="301" y="247" type="curve"/>
      <point x="301" y="125"/>
      <point x="264" y="50"/>
      <point x="185" y="50" type="curve"/>
      <point x="144" y="50"/>
      <point x="111" y="67"/>
      <point x="92" y="82" type="curve"/>
      <point x="80" y="18" type="line"/>
      <point x="111" y="-3"/>
      <point x="156" y="-12"/>
      <point x="187" y="-12" type="curve"/>
      <point x="267" y="-12"/>
      <point x="336" y="34"/>
      <point x="336" y="128" type="curve"/>
      <point x="336" y="34"/>
      <point x="405" y="-12"/>
      <point x="485" y="-12" type="curve"/>
      <point x="516" y="-12"/>
      <point x="561" y="-3"/>
      <point x="592" y="18" type="curve"/>
      <point x="579" y="82" type="line"/>
      <point x="561" y="67"/>
      <point x="528" y="50"/>
      <point x="487" y="50" type="curve"/>
      <point x="407" y="50"/>
      <point x="369" y="125"/>
      <point x="371" y="247" type="curve"/>
      <point x="371" y="374"/>
      <point x="412" y="437"/>
      <point x="487" y="437" type="curve"/>
      <point x="526" y="437"/>
      <point x="560" y="424"/>
      <point x="578" y="411" type="curve"/>
      <point x="590" y="471" type="line"/>
      <point x="563" y="488"/>
      <point x="529" y="499"/>
      <point x="489" y="499" type="curve"/>
      <point x="403" y="499"/>
      <point x="336" y="424"/>
    </contour>
  </outline>
</glyph>
<glyph name="lo" format="1">
  <advance width="672"/>
  <outline>
    <contour>
      <point x="340" y="-13" type="curve"/>
      <point x="475" y="-13"/>
      <point x="572" y="81"/>
      <point x="572" y="259" type="curve"/>
      <point x="572" y="531" type="line"/>
      <point x="572" y="713"/>
      <point x="490" y="764"/>
      <point x="400" y="764" type="curve"/>
      <point x="322" y="764"/>
      <point x="258" y="707"/>
      <point x="258" y="626" type="curve"/>
      <point x="258" y="611"/>
      <point x="259" y="597"/>
      <point x="263" y="584" type="curve"/>
      <point x="265" y="577"/>
      <point x="267" y="571"/>
      <point x="269" y="565" type="curve"/>
      <point x="333" y="585" type="line"/>
      <point x="327" y="596"/>
      <point x="324" y="613"/>
      <point x="324" y="630" type="curve"/>
      <point x="324" y="675"/>
      <point x="355" y="705"/>
      <point x="399" y="705" type="curve"/>
      <point x="456" y="705"/>
      <point x="504" y="677"/>
      <point x="504" y="542" type="curve"/>
      <point x="504" y="267" type="line" smooth="yes"/>
      <point x="504" y="112"/>
      <point x="429" y="46"/>
      <point x="343" y="46" type="curve"/>
      <point x="254" y="46"/>
      <point x="168" y="121"/>
      <point x="168" y="267" type="curve"/>
      <point x="168" y="445" type="line"/>
      <point x="100" y="445" type="line"/>
      <point x="100" y="259" type="line" smooth="yes"/>
      <point x="100" y="81"/>
      <point x="207" y="-13"/>
    </contour>
    <contour>
      <point x="123" y="274" type="line"/>
      <point x="123" y="222" type="line"/>
      <point x="541" y="222" type="line"/>
      <point x="541" y="274" type="line"/>
    </contour>
    <contour>
      <point x="100" y="454" type="line"/>
      <point x="100" y="402" type="line"/>
      <point x="571" y="402" type="line"/>
      <point x="571" y="454" type="line"/>
    </contour>
  </outline>
</glyph>
<glyph name="ma" format="1">
  <advance width="774"/>
  <outline>
    <contour>
      <point x="164" y="657" type="line"/>
      <point x="100" y="657" type="line"/>
      <point x="100" y="274" type="line"/>
      <point x="100" y="86"/>
      <point x="213" y="-13"/>
      <point x="353" y="-13" type="curve"/>
      <point x="495" y="-13"/>
      <point x="598" y="86"/>
      <point x="598" y="274" type="curve"/>
      <point x="598" y="657" type="line"/>
      <point x="533" y="657" type="line"/>
      <point x="533" y="282" type="line"/>
      <point x="533" y="119"/>
      <point x="457" y="49"/>
      <point x="356" y="49" type="curve"/>
      <point x="252" y="49"/>
      <point x="164" y="128"/>
      <point x="164" y="282" type="curve"/>
    </contour>
    <contour>
      <point x="596" y="657" type="line"/>
      <point x="103" y="657" type="line"/>
      <point x="103" y="604" type="line"/>
      <point x="596" y="604" type="line"/>
    </contour>
    <contour>
      <point x="554" y="441" type="line"/>
      <point x="148" y="441" type="line"/>
      <point x="148" y="388" type="line"/>
      <point x="554" y="388" type="line"/>
    </contour>
  </outline>
</glyph>
<glyph name="mo" format="1">
  <advance width="916"/>
  <outline>
    <contour>
      <point x="631" y="-12" type="curve"/>
      <point x="760" y="-12"/>
      <point x="866" y="82"/>
      <point x="866" y="243" type="curve"/>
      <point x="866" y="400"/>
      <point x="762" y="495"/>
      <point x="635" y="495" type="curve"/>
      <point x="486" y="495"/>
      <point x="398" y="386"/>
      <point x="398" y="236" type="curve"/>
      <point x="398" y="81"/>
      <point x="495" y="-12"/>
    </contour>
    <contour>
      <point x="619" y="47" type="curve"/>
      <point x="515" y="47"/>
      <point x="453" y="136"/>
      <point x="453" y="245" type="curve"/>
      <point x="453" y="358"/>
      <point x="519" y="437"/>
      <point x="621" y="437" type="curve"/>
      <point x="725" y="437"/>
      <point x="793" y="355"/>
      <point x="793" y="243" type="curve"/>
      <point x="793" y="124"/>
      <point x="715" y="47"/>
    </contour>
    <contour>
      <point x="142" y="469" type="curve"/>
      <point x="163" y="411" type="line"/>
      <point x="178" y="422"/>
      <point x="209" y="434"/>
      <point x="244" y="434" type="curve"/>
      <point x="331" y="434"/>
      <point x="393" y="368"/>
      <point x="393" y="239" type="curve"/>
      <point x="393" y="120"/>
      <point x="337" y="47"/>
      <point x="233" y="47" type="curve"/>
      <point x="165" y="47"/>
      <point x="117" y="78"/>
      <point x="91" y="146" type="curve"/>
      <point x="50" y="97" type="line"/>
      <point x="87" y="19"/>
      <point x="149" y="-12"/>
      <point x="231" y="-12" type="curve"/>
      <point x="371" y="-12"/>
      <point x="450" y="80"/>
      <point x="450" y="231" type="curve"/>
      <point x="450" y="245" type="line"/>
      <point x="453" y="397"/>
      <point x="385" y="494"/>
      <point x="246" y="494" type="curve"/>
      <point x="210" y="494"/>
      <point x="166" y="483"/>
    </contour>
  </outline>
</glyph>
<glyph name="na" format="1">
  <advance width="600"/>
  <outline>
    <contour>
      <point x="356" y="-148" type="line"/>
      <point x="356" y="113" type="line"/>
      <point x="286" y="113" type="line"/>
      <point x="286" y="-148" type="line"/>
    </contour>
    <contour>
      <point x="101" y="259" type="curve"/>
      <point x="101" y="153"/>
      <point x="177" y="90"/>
      <point x="294" y="90" type="curve"/>
      <point x="356" y="90" type="line"/>
      <point x="356" y="148" type="line"/>
      <point x="298" y="148" type="line" smooth="yes"/>
      <point x="210" y="148"/>
      <point x="167" y="199"/>
      <point x="167" y="259" type="curve"/>
      <point x="167" y="319"/>
      <point x="209" y="369"/>
      <point x="299" y="369" type="curve"/>
      <point x="356" y="369" type="line"/>
      <point x="356" y="427" type="line"/>
      <point x="299" y="427" type="line"/>
      <point x="296" y="427" type="line" smooth="yes"/>
      <point x="177" y="426"/>
      <point x="101" y="362"/>
    </contour>
    <contour>
      <point x="286" y="657" type="line"/>
      <point x="286" y="416" type="line"/>
      <point x="356" y="416" type="line"/>
      <point x="356" y="657" type="line"/>
    </contour>
    <contour>
      <point x="433" y="657" type="line"/>
      <point x="198" y="657" type="line"/>
      <point x="198" y="596" type="line"/>
      <point x="433" y="596" type="line"/>
    </contour>
  </outline>
</glyph>
<glyph name="ne" format="1">
  <advance width="727"/>
  <outline>
    <contour>
      <point x="397" y="0" type="line"/>
      <point x="397" y="557" type="line"/>
      <point x="327" y="557" type="line"/>
      <point x="327" y="0" type="line"/>
    </contour>
    <contour>
      <point x="627" y="324" type="line"/>
      <point x="100" y="324" type="line"/>
      <point x="100" y="261" type="line"/>
      <point x="627" y="261" type="line"/>
    </contour>
  </outline>
</glyph>
<glyph name="no" format="1">
  <advance width="603"/>
  <outline>
    <contour>
      <point x="298" y="100" type="curve"/>
      <point x="401" y="100"/>
      <point x="484" y="179"/>
      <point x="484" y="300" type="curve"/>
      <point x="484" y="413"/>
      <point x="411" y="490"/>
      <point x="308" y="490" type="curve"/>
      <point x="191" y="490"/>
      <point x="128" y="407"/>
      <point x="128" y="292" type="curve"/>
      <point x="128" y="184"/>
      <point x="192" y="100"/>
    </contour>
    <contour>
      <point x="289" y="155" type="curve"/>
      <point x="229" y="155"/>
      <point x="171" y="198"/>
      <point x="171" y="294" type="curve"/>
      <point x="171" y="390"/>
      <point x="228" y="434"/>
      <point x="293" y="434" type="curve"/>
      <point x="362" y="434"/>
      <point x="409" y="383"/>
      <point x="409" y="298" type="curve"/>
      <point x="409" y="211"/>
      <point x="360" y="155"/>
    </contour>
    <contour>
      <point x="170" y="715" type="line"/>
      <point x="100" y="715" type="line"/>
      <point x="100" y="-148" type="line"/>
      <point x="170" y="-148" type="line"/>
    </contour>
  </outline>
</glyph>
<glyph name="o.001" format="1">
  <advance width="558"/>
  <outline>
    <contour>
      <point x="279" y="-12" type="curve"/>
      <point x="415" y="-12"/>
      <point x="532" y="86"/>
      <point x="532" y="241" type="curve"/>
      <point x="532" y="387"/>
      <point x="423" y="496"/>
      <point x="279" y="496" type="curve"/>
      <point x="136" y="496"/>
      <point x="26" y="390"/>
      <point x="26" y="241" type="curve"/>
      <point x="26" y="86"/>
      <point x="144" y="-12"/>
    </contour>
    <contour>
      <point x="279" y="50" type="curve"/>
      <point x="173" y="50"/>
      <point x="100" y="132"/>
      <point x="100" y="244" type="curve"/>
      <point x="100" y="358"/>
      <point x="170" y="434"/>
      <point x="279" y="433" type="curve"/>
      <point x="387" y="432"/>
      <point x="458" y="358"/>
      <point x="458" y="244" type="curve"/>
      <point x="458" y="132"/>
      <point x="384" y="50"/>
    </contour>
  </outline>
</glyph>
<glyph name="po" format="1">
  <advance width="774"/>
  <outline>
    <contour>
      <point x="356" y="657" type="line"/>
      <point x="356" y="288" type="line"/>
      <point x="426" y="288" type="line"/>
      <point x="426" y="657" type="line"/>
    </contour>
    <contour>
      <point x="143" y="325" type="line"/>
      <point x="143" y="275" type="line"/>
      <point x="143" y="80"/>
      <point x="239" y="-12"/>
      <point x="391" y="-12" type="curve"/>
      <point x="555" y="-12"/>
      <point x="641" y="78"/>
      <point x="641" y="275" type="curve"/>
      <point x="641" y="325" type="line"/>
    </contour>
    <contour>
      <point x="207" y="266" type="curve"/>
      <point x="576" y="266" type="line"/>
      <point x="576" y="112"/>
      <point x="510" y="47"/>
      <point x="391" y="47" type="curve"/>
      <point x="275" y="47"/>
      <point x="207" y="120"/>
    </contour>
  </outline>
</glyph>
<glyph name="sa" format="1">
  <advance width="600"/>
  <outline>
    <contour>
      <point x="301" y="405" type="line"/>
      <point x="231" y="405" type="line"/>
      <point x="231" y="-148" type="line"/>
      <point x="301" y="-148" type="line"/>
    </contour>
    <contour>
      <point x="298" y="390" type="move"/>
    </contour>
    <contour>
      <point x="263" y="369" type="curve"/>
      <point x="358" y="369"/>
      <point x="441" y="437"/>
      <point x="441" y="545" type="curve"/>
      <point x="441" y="648"/>
      <point x="366" y="726"/>
      <point x="264" y="726" type="curve"/>
      <point x="163" y="726"/>
      <point x="86" y="649"/>
      <point x="86" y="545" type="curve"/>
      <point x="86" y="438"/>
      <point x="166" y="369"/>
    </contour>
    <contour>
      <point x="264" y="417" type="curve"/>
      <point x="196" y="417"/>
      <point x="151" y="471"/>
      <point x="151" y="541" type="curve"/>
      <point x="151" y="620"/>
      <point x="194" y="677"/>
      <point x="264" y="677" type="curve"/>
      <point x="334" y="677"/>
      <point x="376" y="620"/>
      <point x="376" y="541" type="curve"/>
      <point x="376" y="471"/>
      <point x="329" y="417"/>
    </contour>
  </outline>
</glyph>
<glyph name="se" format="1">
  <advance width="862"/>
  <outline>
    <contour>
      <point x="762" y="435" type="curve"/>
      <point x="762" y="611"/>
      <point x="618" y="705"/>
      <point x="348" y="654" type="curve"/>
      <point x="348" y="591" type="line"/>
      <point x="558" y="635"/>
      <point x="694" y="568"/>
      <point x="694" y="435" type="curve"/>
      <point x="694" y="304"/>
      <point x="581" y="229"/>
      <point x="360" y="270" type="curve"/>
      <point x="360" y="209" type="line"/>
      <point x="623" y="162"/>
      <point x="762" y="262"/>
    </contour>
    <contour>
      <point x="100" y="214" type="curve"/>
      <point x="100" y="37"/>
      <point x="246" y="-51"/>
      <point x="516" y="-1" type="curve"/>
      <point x="516" y="60" type="line"/>
      <point x="305" y="18"/>
      <point x="169" y="89"/>
      <point x="169" y="218" type="curve"/>
      <point x="169" y="350"/>
      <point x="282" y="424"/>
      <point x="503" y="384" type="curve"/>
      <point x="503" y="445" type="line"/>
      <point x="243" y="492"/>
      <point x="100" y="388"/>
    </contour>
  </outline>
</glyph>
<glyph name="si.alt" format="1">
  <advance width="975"/>
  <outline>
    <contour>
      <point x="608" y="669" type="curve"/>
      <point x="439" y="669"/>
      <point x="342" y="551"/>
      <point x="342" y="313" type="curve"/>
      <point x="342" y="284"/>
      <point x="343" y="254"/>
      <point x="345" y="221" type="curve"/>
      <point x="411" y="221" type="line"/>
      <point x="409" y="250"/>
      <point x="408" y="279"/>
      <point x="408" y="304" type="curve"/>
      <point x="408" y="523"/>
      <point x="480" y="610"/>
      <point x="606" y="610" type="curve"/>
      <point x="728" y="610"/>
      <point x="799" y="520"/>
      <point x="799" y="294" type="curve"/>
      <point x="799" y="272"/>
      <point x="798" y="246"/>
      <point x="798" y="221" type="curve"/>
      <point x="863" y="221" type="line"/>
      <point x="867" y="252"/>
      <point x="867" y="281"/>
      <point x="867" y="309" type="curve"/>
      <point x="867" y="549"/>
      <point x="769" y="669"/>
    </contour>
    <contour>
      <point x="374" y="-12" type="curve"/>
      <point x="544" y="-12"/>
      <point x="634" y="106"/>
      <point x="634" y="344" type="curve"/>
      <point x="634" y="373"/>
      <point x="633" y="407"/>
      <point x="629" y="441" type="curve"/>
      <point x="564" y="441" type="line"/>
      <point x="566" y="410"/>
      <point x="567" y="378"/>
      <point x="567" y="351" type="curve"/>
      <point x="567" y="133"/>
      <point x="502" y="46"/>
      <point x="376" y="46" type="curve"/>
      <point x="254" y="46"/>
      <point x="176" y="136"/>
      <point x="176" y="362" type="curve"/>
      <point x="176" y="385"/>
      <point x="176" y="413"/>
      <point x="177" y="441" type="curve"/>
      <point x="112" y="441" type="line"/>
      <point x="109" y="409"/>
      <point x="108" y="375"/>
      <point x="108" y="347" type="curve"/>
      <point x="108" y="108"/>
      <point x="214" y="-12"/>
    </contour>
  </outline>
</glyph>
<glyph name="si" format="1">
  <advance width="966"/>
  <outline>
    <contour>
      <point x="378" y="669" type="curve"/>
      <point x="209" y="669"/>
      <point x="108" y="551"/>
      <point x="108" y="313" type="curve"/>
      <point x="108" y="284"/>
      <point x="109" y="254"/>
      <point x="111" y="221" type="curve"/>
      <point x="177" y="221" type="line"/>
      <point x="175" y="250"/>
      <point x="174" y="279"/>
      <point x="174" y="304" type="curve"/>
      <point x="174" y="523"/>
      <point x="246" y="610"/>
      <point x="372" y="610" type="curve"/>
      <point x="494" y="610"/>
      <point x="565" y="520"/>
      <point x="565" y="294" type="curve"/>
      <point x="565" y="272"/>
      <point x="564" y="246"/>
      <point x="564" y="221" type="curve"/>
      <point x="629" y="221" type="line"/>
      <point x="633" y="252"/>
      <point x="633" y="281"/>
      <point x="633" y="309" type="curve"/>
      <point x="633" y="549"/>
      <point x="539" y="669"/>
    </contour>
    <contour>
      <point x="598" y="-12" type="curve"/>
      <point x="768" y="-12"/>
      <point x="858" y="106"/>
      <point x="858" y="344" type="curve"/>
      <point x="858" y="373"/>
      <point x="857" y="407"/>
      <point x="853" y="441" type="curve"/>
      <point x="788" y="441" type="line"/>
      <point x="790" y="410"/>
      <point x="791" y="378"/>
      <point x="791" y="351" type="curve"/>
      <point x="791" y="133"/>
      <point x="726" y="46"/>
      <point x="600" y="46" type="curve"/>
      <point x="478" y="46"/>
      <point x="400" y="136"/>
      <point x="400" y="362" type="curve"/>
      <point x="400" y="385"/>
      <point x="400" y="413"/>
      <point x="401" y="441" type="curve"/>
      <point x="336" y="441" type="line"/>
      <point x="333" y="409"/>
      <point x="332" y="375"/>
      <point x="332" y="347" type="curve"/>
      <point x="332" y="108"/>
      <point x="438" y="-12"/>
    </contour>
  </outline>
</glyph>
<glyph name="ta" format="1">
  <advance width="600"/>
  <outline>
    <contour>
      <point x="321" y="731" type="curve"/>
      <point x="211" y="731"/>
      <point x="85" y="456"/>
      <point x="85" y="0" type="curve"/>
      <point x="85" y="-120"/>
      <point x="128" y="-161"/>
      <point x="187" y="-161" type="curve"/>
      <point x="297" y="-161"/>
      <point x="413" y="148"/>
      <point x="413" y="542" type="curve"/>
      <point x="413" y="673"/>
      <point x="381" y="731"/>
    </contour>
    <contour>
      <point x="313" y="665" type="curve"/>
      <point x="337" y="665"/>
      <point x="350" y="618"/>
      <point x="350" y="555" type="curve"/>
      <point x="350" y="235"/>
      <point x="246" y="-95"/>
      <point x="181" y="-95" type="curve"/>
      <point x="168" y="-95"/>
      <point x="150" y="-84"/>
      <point x="150" y="27" type="curve"/>
      <point x="150" y="319"/>
      <point x="244" y="665"/>
    </contour>
  </outline>
</glyph>
<glyph name="te" format="1">
  <advance width="578"/>
  <outline>
    <contour>
      <point x="356" y="-160" type="curve"/>
      <point x="462" y="-160"/>
      <point x="528" y="-77"/>
      <point x="528" y="14" type="curve"/>
      <point x="465" y="28" type="line"/>
      <point x="465" y="-43"/>
      <point x="424" y="-97"/>
      <point x="366" y="-97" type="curve"/>
      <point x="294" y="-97"/>
      <point x="268" y="-54"/>
      <point x="268" y="20" type="curve"/>
      <point x="268" y="667" type="line"/>
      <point x="200" y="667" type="line"/>
      <point x="200" y="17" type="line"/>
      <point x="200" y="-77"/>
      <point x="254" y="-160"/>
    </contour>
    <contour>
      <point x="406" y="714" type="line"/>
      <point x="87" y="714" type="line"/>
      <point x="87" y="657" type="line"/>
      <point x="406" y="657" type="line"/>
    </contour>
  </outline>
</glyph>
<glyph name="te.ss01" format="1">
  <advance width="1050"/>
  <outline>
    <contour>
      <point x="51" y="328" type="curve"/>
      <point x="51" y="222"/>
      <point x="134" y="156"/>
      <point x="225" y="156" type="curve"/>
      <point x="239" y="219" type="line"/>
      <point x="168" y="219"/>
      <point x="114" y="260"/>
      <point x="114" y="318" type="curve"/>
      <point x="114" y="390"/>
      <point x="157" y="416"/>
      <point x="231" y="416" type="curve"/>
      <point x="878" y="416" type="line"/>
      <point x="878" y="484" type="line"/>
      <point x="228" y="484" type="line"/>
      <point x="134" y="484"/>
      <point x="51" y="430"/>
    </contour>
    <contour>
      <point x="925" y="278" type="line"/>
      <point x="925" y="597" type="line"/>
      <point x="868" y="597" type="line"/>
      <point x="868" y="278" type="line"/>
    </contour>
  </outline>
</glyph>
<glyph name="ti" format="1">
  <advance width="727"/>
  <outline>
    <contour>
      <point x="373" y="762" type="curve"/>
      <point x="489" y="762"/>
      <point x="561" y="667"/>
      <point x="561" y="569" type="curve"/>
      <point x="561" y="486"/>
      <point x="526" y="372"/>
      <point x="429" y="299" type="curve"/>
      <point x="390" y="336" type="line"/>
      <point x="461" y="387"/>
      <point x="494" y="483"/>
      <point x="494" y="557" type="curve"/>
      <point x="494" y="642"/>
      <point x="448" y="706"/>
      <point x="368" y="706" type="curve"/>
      <point x="296" y="706"/>
      <point x="250" y="647"/>
      <point x="250" y="569" type="curve"/>
      <point x="250" y="521"/>
      <point x="270" y="458"/>
      <point x="357" y="378" type="curve"/>
      <point x="385" y="350" type="line" smooth="yes"/>
      <point x="471" y="268"/>
      <point x="512" y="183"/>
      <point x="512" y="81" type="curve"/>
      <point x="512" y="-58"/>
      <point x="415" y="-160"/>
      <point x="287" y="-160" type="curve"/>
      <point x="154" y="-160"/>
      <point x="65" y="-59"/>
      <point x="65" y="73" type="curve"/>
      <point x="65" y="213"/>
      <point x="152" y="337"/>
      <point x="318" y="393" type="curve"/>
      <point x="350" y="356" type="line"/>
      <point x="205" y="292"/>
      <point x="135" y="200"/>
      <point x="135" y="81" type="curve"/>
      <point x="135" y="-31"/>
      <point x="207" y="-101"/>
      <point x="289" y="-101" type="curve"/>
      <point x="384" y="-101"/>
      <point x="445" y="-30"/>
      <point x="445" y="84" type="curve"/>
      <point x="445" y="164"/>
      <point x="412" y="245"/>
      <point x="343" y="308" type="curve"/>
      <point x="303" y="343" type="line" smooth="yes"/>
      <point x="227" y="411"/>
      <point x="181" y="493"/>
      <point x="181" y="564" type="curve"/>
      <point x="181" y="677"/>
      <point x="261" y="762"/>
    </contour>
  </outline>
</glyph>
<glyph name="tja" format="1">
  <advance width="600"/>
  <outline>
    <contour>
      <point x="314" y="715" type="line"/>
      <point x="245" y="715" type="line"/>
      <point x="247" y="455" type="line"/>
      <point x="316" y="455" type="line"/>
    </contour>
    <contour>
      <point x="316" y="178" type="line"/>
      <point x="247" y="178" type="line"/>
      <point x="245" y="-148" type="line"/>
      <point x="314" y="-148" type="line"/>
    </contour>
    <contour>
      <point x="280" y="139" type="curve"/>
      <point x="375" y="139"/>
      <point x="455" y="208"/>
      <point x="455" y="315" type="curve"/>
      <point x="455" y="418"/>
      <point x="379" y="496"/>
      <point x="277" y="496" type="curve"/>
      <point x="176" y="496"/>
      <point x="100" y="419"/>
      <point x="100" y="315" type="curve"/>
      <point x="100" y="208"/>
      <point x="183" y="139"/>
    </contour>
    <contour>
      <point x="280" y="187" type="curve"/>
      <point x="212" y="187"/>
      <point x="165" y="235"/>
      <point x="165" y="315" type="curve"/>
      <point x="165" y="391"/>
      <point x="207" y="447"/>
      <point x="277" y="447" type="curve"/>
      <point x="347" y="447"/>
      <point x="390" y="391"/>
      <point x="390" y="315" type="curve"/>
      <point x="390" y="235"/>
      <point x="345" y="187"/>
    </contour>
  </outline>
</glyph>
<glyph name="we" format="1">
  <advance width="1102"/>
  <outline>
    <contour>
      <point x="137" y="299" type="curve"/>
      <point x="137" y="376"/>
      <point x="190" y="440"/>
      <point x="265" y="439" type="curve"/>
      <point x="343" y="438"/>
      <point x="387" y="376"/>
      <point x="387" y="300" type="curve"/>
      <point x="387" y="221"/>
      <point x="342" y="161"/>
      <point x="266" y="161" type="curve"/>
      <point x="205" y="161"/>
      <point x="137" y="204"/>
    </contour>
    <contour>
      <point x="538" y="-12" type="curve"/>
      <point x="815" y="-12"/>
      <point x="1011" y="113"/>
      <point x="1011" y="289" type="curve"/>
      <point x="1011" y="405"/>
      <point x="929" y="496"/>
      <point x="812" y="496" type="curve"/>
      <point x="701" y="496"/>
      <point x="622" y="408"/>
      <point x="622" y="302" type="curve"/>
      <point x="622" y="188"/>
      <point x="713" y="113"/>
      <point x="821" y="117" type="curve"/>
      <point x="824" y="107" type="line"/>
      <point x="771" y="71"/>
      <point x="658" y="42"/>
      <point x="538" y="42" type="curve"/>
      <point x="418" y="42"/>
      <point x="307" y="71"/>
      <point x="253" y="107" type="curve"/>
      <point x="257" y="117" type="line"/>
      <point x="365" y="113"/>
      <point x="456" y="188"/>
      <point x="456" y="302" type="curve"/>
      <point x="456" y="408"/>
      <point x="376" y="496"/>
      <point x="265" y="496" type="curve"/>
      <point x="149" y="496"/>
      <point x="66" y="405"/>
      <point x="66" y="289" type="curve"/>
      <point x="66" y="113"/>
      <point x="263" y="-12"/>
    </contour>
    <contour>
      <point x="940" y="299" type="curve"/>
      <point x="940" y="205"/>
      <point x="873" y="163"/>
      <point x="811" y="163" type="curve"/>
      <point x="735" y="163"/>
      <point x="691" y="221"/>
      <point x="691" y="300" type="curve"/>
      <point x="691" y="375"/>
      <point x="733" y="436"/>
      <point x="812" y="437" type="curve"/>
      <point x="888" y="438"/>
      <point x="940" y="375"/>
    </contour>
  </outline>
</glyph>
